<svg width="184" height="130" viewBox="0 0 184 130" fill="none" xmlns="http://www.w3.org/2000/svg">
<rect x="19.6226" width="168" height="97.3913" rx="4.86957" transform="rotate(11.6236 19.6226 0)" fill="#FFF3EC"/>
<path d="M89.6513 73.2512C90.1363 73.7168 90.907 73.7011 91.3726 73.2161C91.8382 72.7311 91.8225 71.9604 91.3375 71.4948L89.6513 73.2512ZM91.3375 71.4948L25.4298 8.22238L23.7436 9.97879L89.6513 73.2512L91.3375 71.4948Z" fill="#FFE8D8"/>
<path d="M175.597 39.1113C176.226 38.8749 176.928 39.1935 177.164 39.823C177.401 40.4524 177.082 41.1543 176.453 41.3906L175.597 39.1113ZM90.0664 71.2329L175.597 39.1113L176.453 41.3906L90.9224 73.5123L90.0664 71.2329Z" fill="#FFE8D8"/>
<g clip-path="url(#clip0_1858_19484)">
<path d="M74.9325 94.0539C75.4808 94.457 75.8673 94.9404 76.0922 95.5042C76.3316 96.0584 76.3853 96.6564 76.2533 97.2983C76.0988 98.0491 75.7572 98.6668 75.2283 99.1513C74.697 99.6479 74.0248 99.9704 73.2116 100.119C72.396 100.279 71.4917 100.257 70.4986 100.053C69.5298 99.8536 68.7144 99.5218 68.0525 99.0575C67.3907 98.5931 66.9197 98.0292 66.6396 97.3657C66.3717 96.7046 66.3162 95.9927 66.4731 95.2297C66.513 95.0359 66.5489 94.8918 66.5809 94.7974L69.324 95.3617C69.1777 95.9501 69.2465 96.444 69.5305 96.8432C69.8265 97.2449 70.3137 97.5155 70.9918 97.655C71.5974 97.7796 72.1165 97.7412 72.5492 97.5399C72.9795 97.3507 73.2407 97.032 73.3328 96.5839C73.4275 96.1237 73.3254 95.7303 73.0265 95.4038C72.7372 95.0918 72.2716 94.8698 71.6298 94.7378C70.6367 94.5335 69.8034 94.1664 69.1297 93.6366C68.4682 93.1092 68.0013 92.464 67.7291 91.7011C67.4714 90.9286 67.436 90.0882 67.6229 89.1799C67.8022 88.308 68.1675 87.5752 68.7188 86.9818C69.2847 86.3786 69.9756 85.9654 70.7915 85.7419C71.6221 85.5088 72.5158 85.4907 73.4725 85.6875C74.2113 85.8394 74.8595 86.1242 75.4174 86.5419L77.0323 88.5404C77.4959 89.3552 77.6292 90.241 77.4324 91.1978C77.2954 91.8638 77.0049 92.4479 76.5608 92.9498C76.1313 93.4421 75.5886 93.8101 74.9325 94.0539ZM72.1086 92.318C72.7384 92.4475 73.2869 92.3584 73.7541 92.0506C74.2214 91.7427 74.521 91.2679 74.653 90.626C74.7851 89.9842 74.6959 89.4357 74.3856 88.9805C74.0899 88.5158 73.6211 88.2174 72.9793 88.0853C72.3495 87.9558 71.801 88.0449 71.3338 88.3528C70.869 88.6485 70.5706 89.1173 70.4386 89.7591C70.309 90.3889 70.3969 90.9434 70.7022 91.4228C71.0101 91.8901 71.4789 92.1885 72.1086 92.318Z" fill="#FEB98B"/>
<path d="M63.3619 83.6456C64.4761 83.8747 65.2854 84.4199 65.7899 85.2811C66.3065 86.1447 66.4328 87.2184 66.1687 88.5021L65.1262 93.5704L62.2741 92.9837L63.283 88.0789C63.4026 87.4976 63.3507 87.0136 63.1273 86.6268C62.9039 86.2401 62.5379 85.9944 62.0293 85.8897C61.4722 85.7751 60.9855 85.8707 60.5692 86.1764C60.1528 86.482 59.8824 86.9376 59.7578 87.5432L58.7863 92.2663L55.9342 91.6796L57.7802 82.7057L60.2507 83.2139L60.2157 84.3049C60.6491 83.9775 61.1304 83.7546 61.6597 83.6362C62.2011 83.5204 62.7685 83.5235 63.3619 83.6456Z" fill="#FEB98B"/>
<path d="M52.7773 81.6768L55.6294 82.2634L53.7834 91.2374L50.9314 90.6507L52.7773 81.6768Z" fill="#FEB98B"/>
<path d="M47.1843 80.3183C48.2864 80.5449 49.0823 81.0937 49.5722 81.9645C50.0743 82.8377 50.1957 83.9041 49.9366 85.1636L48.8941 90.2319L46.0421 89.6452L47.051 84.7404C47.1705 84.1591 47.1186 83.6751 46.8952 83.2883C46.684 82.904 46.324 82.6596 45.8154 82.5549C45.2583 82.4404 44.7655 82.5347 44.3371 82.8378C43.9208 83.1435 43.6503 83.5991 43.5258 84.2046L42.5542 88.9278L39.7022 88.3411L42.3179 75.625L45.1699 76.2117L44.1984 80.9348C45.0506 80.2896 46.0459 80.0841 47.1843 80.3183Z" fill="#FEB98B"/>
<path d="M34.7094 87.5216C33.7042 87.3149 32.8648 86.9465 32.1911 86.4167C31.5321 85.8772 31.069 85.2139 30.8017 84.4268C30.5465 83.6421 30.5161 82.7775 30.7104 81.8329C30.9022 80.9004 31.2763 80.1253 31.8325 79.5075C32.3912 78.8777 33.0798 78.445 33.8983 78.2094C34.7193 77.9617 35.6142 77.9376 36.583 78.1368C37.2491 78.2739 37.86 78.5257 38.4157 78.8925C38.9739 79.2472 39.4418 79.7032 39.8195 80.2605L37.884 81.6612C37.4725 81.0843 36.9217 80.7248 36.2313 80.5828C35.5774 80.4483 35.0009 80.5506 34.502 80.8898C34.0055 81.2168 33.6875 81.7195 33.548 82.3976C33.4085 83.0758 33.495 83.668 33.8075 84.1741C34.1345 84.6705 34.6311 84.9872 35.2972 85.1243C36.0359 85.2762 36.7192 85.1454 37.3471 84.7317L38.6126 86.7719C37.4032 87.5582 36.1021 87.8081 34.7094 87.5216Z" fill="#FEB98B"/>
<path d="M29.1556 85.8119C28.381 86.0186 27.5516 86.0311 26.6676 85.8492C25.6866 85.6474 24.9676 85.2155 24.5105 84.5534C24.0559 83.8793 23.9544 82.9306 24.206 81.7074L24.9047 78.3104L23.3788 77.9965L23.8459 75.7258L25.3718 76.0397L28.2058 76.6224L28.2057 76.6226L30.4401 77.0822L29.973 79.353L27.7386 78.8933L27.0399 82.2904C26.9651 82.6537 26.9999 82.9448 27.1442 83.1639C27.291 83.3708 27.5218 83.5066 27.8367 83.5714C28.1879 83.6436 28.5505 83.6299 28.9244 83.5301L29.1556 85.8119Z" fill="#FEB98B"/>
<path d="M19.4971 74.8311L22.3491 75.4177L20.5032 84.3917L17.6511 83.805L19.4971 74.8311Z" fill="#FEB98B"/>
<path d="M28.5668 76.3648C27.3081 78.2465 26.2194 79.1979 25.4108 78.695C24.7311 78.2722 25.0421 76.5435 26.1054 74.8339C27.1688 73.1242 28.5818 72.081 29.2615 72.5037C29.9412 72.9265 29.6302 74.6552 28.5668 76.3648Z" fill="#FEB98B"/>
<path d="M78.1596 86.566C76.9008 88.4477 76.0306 88.9541 75.222 88.4512C74.5423 88.0285 74.6348 86.7447 75.6982 85.0351C76.7615 83.3254 78.1745 82.2822 78.8543 82.7049C79.534 83.1277 79.223 84.8563 78.1596 86.566Z" fill="#FEB98B"/>
</g>
<defs>
<clipPath id="clip0_1858_19484">
<rect width="66.7663" height="23.7391" fill="white" transform="translate(18.1772 67.4395) rotate(11.6236)"/>
</clipPath>
</defs>
</svg>
