<svg width="160" height="160" viewBox="0 0 160 160" fill="none" xmlns="http://www.w3.org/2000/svg">
<g opacity="0.3" clip-path="url(#clip0_1259_13882)">
<path d="M121.825 112.676C124.075 113.711 125.808 115.151 127.023 116.997C128.283 118.797 128.913 120.89 128.913 123.275C128.913 126.066 128.148 128.518 126.618 130.634C125.088 132.794 122.927 134.437 120.137 135.562C117.346 136.732 114.106 137.317 110.415 137.317C106.815 137.317 103.664 136.732 100.964 135.562C98.2634 134.392 96.1706 132.727 94.6854 130.566C93.2452 128.406 92.5251 125.908 92.5251 123.073C92.5251 122.353 92.5476 121.812 92.5926 121.452H102.787C102.697 123.658 103.304 125.368 104.609 126.583C105.96 127.798 107.895 128.406 110.415 128.406C112.666 128.406 114.488 127.888 115.884 126.853C117.279 125.863 117.977 124.535 117.977 122.87C117.977 121.16 117.324 119.832 116.019 118.887C114.759 117.987 112.936 117.537 110.55 117.537C106.86 117.537 103.619 116.839 100.829 115.444C98.0834 114.049 95.9456 112.091 94.4153 109.571C92.9301 107.005 92.1875 104.035 92.1875 100.659C92.1875 97.4186 92.9526 94.5382 94.4829 92.0178C96.0581 89.4524 98.2184 87.4721 100.964 86.0768C103.754 84.6366 106.927 83.9165 110.483 83.9165C113.228 83.9165 115.749 84.4566 118.044 85.5368L125.268 91.4777C127.518 94.0431 128.643 97.1036 128.643 100.659C128.643 103.135 128.036 105.43 126.82 107.545C125.65 109.616 123.985 111.326 121.825 112.676ZM110.483 108.558C112.823 108.558 114.714 107.838 116.154 106.398C117.594 104.957 118.314 103.044 118.314 100.659C118.314 98.2737 117.594 96.3835 116.154 94.9882C114.759 93.548 112.868 92.8279 110.483 92.8279C108.142 92.8279 106.252 93.548 104.812 94.9882C103.372 96.3835 102.652 98.2737 102.652 100.659C102.652 102.999 103.372 104.912 104.812 106.398C106.252 107.838 108.142 108.558 110.483 108.558Z" fill="white"/>
<path d="M72.9364 84.0508C77.0771 84.0508 80.3626 85.401 82.793 88.1014C85.2683 90.8018 86.506 94.5374 86.506 99.3082V118.144H75.9069V99.9158C75.9069 97.7554 75.3668 96.0677 74.2866 94.8525C73.2065 93.6373 71.7212 93.0297 69.8309 93.0297C67.7606 93.0297 66.0954 93.7273 64.8352 95.1225C63.575 96.5177 62.9449 98.3405 62.9449 100.591V118.144H52.3457V84.7934H61.5271L62.2022 88.709C63.5075 87.2238 65.0602 86.0761 66.8605 85.266C68.7058 84.4558 70.7311 84.0508 72.9364 84.0508Z" fill="white"/>
<path d="M33.7539 84.7935H44.3531V118.144H33.7539V84.7935Z" fill="white"/>
<path d="M125.02 44.2197C129.115 44.2197 132.356 45.5925 134.741 48.3379C137.172 51.0833 138.387 54.7964 138.387 59.4771V78.3126H127.788V60.0847C127.788 57.9244 127.248 56.2366 126.167 55.0214C125.132 53.8062 123.67 53.1986 121.779 53.1986C119.709 53.1986 118.021 53.8962 116.716 55.2915C115.456 56.6867 114.826 58.5095 114.826 60.7598V78.3126H104.227V31.0552H114.826V48.6079C117.391 45.6825 120.789 44.2197 125.02 44.2197Z" fill="white"/>
<path d="M85.823 79.0552C82.0874 79.0552 78.8244 78.3576 76.0339 76.9623C73.2885 75.5221 71.1507 73.4968 69.6204 70.8864C68.1352 68.276 67.3926 65.2155 67.3926 61.705C67.3926 58.2394 68.1577 55.2014 69.6879 52.591C71.2182 49.9356 73.356 47.8878 76.1014 46.4476C78.8469 44.9623 82.0199 44.2197 85.6204 44.2197C88.0958 44.2197 90.4587 44.6698 92.709 45.5699C94.9594 46.4251 96.9622 47.7078 98.7175 49.418L92.8441 55.8315C90.9538 54.0763 88.7259 53.1986 86.1605 53.1986C83.7301 53.1986 81.7498 53.9863 80.2196 55.5615C78.6893 57.0917 77.9242 59.1171 77.9242 61.6374C77.9242 64.1578 78.6668 66.2057 80.1521 67.7809C81.6823 69.3111 83.6851 70.0763 86.1605 70.0763C88.9059 70.0763 91.2463 69.1086 93.1816 67.1733L99.1901 73.5193C95.4545 77.2099 90.9988 79.0552 85.823 79.0552Z" fill="white"/>
<path d="M64.7686 77.0297C62.1582 78.3349 59.2102 78.9875 55.9247 78.9875C52.2791 78.9875 49.3987 77.9749 47.2833 75.9496C45.168 73.8792 44.1103 70.5712 44.1103 66.0255V53.401H38.4395V44.9622H44.1103L54.642 44.9614V44.9622H62.9458V53.401H54.642V66.0255C54.642 67.3757 54.9795 68.3884 55.6546 69.0635C56.3298 69.6936 57.2524 70.0086 58.4226 70.0086C59.7278 70.0086 61.0105 69.6936 62.2707 69.0635L64.7686 77.0297Z" fill="white"/>
<path d="M22.2773 44.9624H32.8765V78.3126H22.2773V44.9624Z" fill="white"/>
<path d="M55.7421 43.7823C52.634 51.4147 49.45 55.6052 46.1981 54.4051C43.4646 53.3963 43.3056 47.0047 45.8431 40.1291C48.3805 33.2535 52.6535 28.4975 55.387 29.5063C58.1206 30.5151 58.2795 36.9067 55.7421 43.7823Z" fill="white"/>
<path d="M127.842 83.6134C124.734 91.2458 122.002 93.6898 118.75 92.4896C116.017 91.4808 115.405 86.8358 117.943 79.9601C120.48 73.0845 124.753 68.3285 127.487 69.3374C130.22 70.3462 130.379 76.7378 127.842 83.6134Z" fill="white"/>
</g>
<defs>
<clipPath id="clip0_1259_13882">
<rect width="160" height="160" fill="white"/>
</clipPath>
</defs>
</svg>
