<svg width="160" height="160" viewBox="0 0 160 160" fill="none" xmlns="http://www.w3.org/2000/svg">
<path fill-rule="evenodd" clip-rule="evenodd" d="M58.991 106.837C44.5649 136.657 31.1084 149.486 18.0574 144.572C4.10198 139.317 3.83422 106.275 17.0755 70.3957C30.3168 34.5162 50.9904 9.09828 66.0083 14.6406C75.7761 18.2454 77.9683 36.1973 74.3238 58.962L74.3693 58.9771C72.7693 69.7771 73.1319 73.383 74.5605 75.383C76.5605 78.183 79.7271 78.883 81.0605 78.883C87.4605 78.483 93.3221 71.5789 95.0868 67.6803L95.5639 66.7127C103.581 49.5646 124.867 9.53155 142.399 15.5928C156.285 20.3935 155.491 53.8824 143.381 89.7689C126.491 134.882 107.491 149.382 94.4482 145.524C82.171 141.892 81.1414 120.973 86.8768 94.9665C87.9246 87.6122 86.1929 84.3267 85.0605 83.383C82.6605 81.383 79.6233 81.0704 77.5605 81.383C70.5369 82.4476 64.1246 96.0839 60.1294 104.58C59.7464 105.395 59.3857 106.162 59.0488 106.866L58.991 106.837Z" fill="url(#paint0_linear_1788_700)"/>
<defs>
<linearGradient id="paint0_linear_1788_700" x1="80.0005" y1="13.8811" x2="80.0005" y2="146.119" gradientUnits="userSpaceOnUse">
<stop offset="0.205" stop-color="#FD8B3E"/>
<stop offset="0.45" stop-color="#FF852F"/>
<stop offset="1" stop-color="#E9A353"/>
</linearGradient>
</defs>
</svg>
