<svg width="116" height="36" viewBox="0 0 116 36" fill="none" xmlns="http://www.w3.org/2000/svg">
<path d="M109.847 23.29C111.007 23.8236 111.9 24.5661 112.527 25.5174C113.176 26.4454 113.501 27.5243 113.501 28.754C113.501 30.1926 113.107 31.4571 112.318 32.5476C111.529 33.6613 110.415 34.5081 108.977 35.0882C107.538 35.6914 105.868 35.9931 103.965 35.9931C102.109 35.9931 100.485 35.6914 99.0928 35.0882C97.7006 34.4849 96.6217 33.6265 95.8561 32.5128C95.1136 31.3991 94.7424 30.1113 94.7424 28.6496C94.7424 28.2784 94.754 28 94.7772 27.8144H100.032C99.986 28.9512 100.299 29.8329 100.972 30.4594C101.668 31.0858 102.666 31.3991 103.965 31.3991C105.125 31.3991 106.065 31.1322 106.784 30.5986C107.503 30.0881 107.863 29.4037 107.863 28.5452C107.863 27.6635 107.527 26.9791 106.854 26.4918C106.204 26.0278 105.264 25.7958 104.035 25.7958C102.132 25.7958 100.462 25.4361 99.0231 24.7169C97.6078 23.9976 96.5057 22.9883 95.7169 21.689C94.9512 20.3665 94.5684 18.8352 94.5684 17.095C94.5684 15.4245 94.9628 13.9395 95.7517 12.6402C96.5637 11.3177 97.6774 10.2968 99.0928 9.57756C100.531 8.8351 102.167 8.46387 104 8.46387C105.415 8.46387 106.715 8.74229 107.898 9.29914L111.622 12.3618C112.782 13.6843 113.362 15.2621 113.362 17.095C113.362 18.3711 113.049 19.5544 112.422 20.6449C111.819 21.7122 110.961 22.5939 109.847 23.29ZM104 21.167C105.206 21.167 106.181 20.7957 106.923 20.0533C107.666 19.3108 108.037 18.3247 108.037 17.095C108.037 15.8653 107.666 14.8908 106.923 14.1716C106.204 13.4291 105.23 13.0579 104 13.0579C102.793 13.0579 101.819 13.4291 101.077 14.1716C100.334 14.8908 99.9628 15.8653 99.9628 17.095C99.9628 18.3015 100.334 19.2876 101.077 20.0533C101.819 20.7957 102.793 21.167 104 21.167Z" fill="#131115"/>
<path d="M84.6423 8.5332C86.7769 8.5332 88.4706 9.22926 89.7235 10.6214C90.9996 12.0135 91.6377 13.9393 91.6377 16.3987V26.1087H86.1736V16.7119C86.1736 15.5982 85.8952 14.7281 85.3383 14.1017C84.7815 13.4752 84.0158 13.162 83.0413 13.162C81.974 13.162 81.1156 13.5216 80.4659 14.2409C79.8163 14.9602 79.4914 15.8998 79.4914 17.0599V26.1087H74.0273V8.91604H78.7606L79.1086 10.9346C79.7814 10.1689 80.5819 9.57729 81.51 9.15966C82.4613 8.74202 83.5054 8.5332 84.6423 8.5332Z" fill="#131115"/>
<path d="M64.4434 8.91602H69.9074V26.1087H64.4434V8.91602Z" fill="#131115"/>
<path d="M53.649 8.53366C55.7604 8.53366 57.431 9.24132 58.6607 10.6566C59.9136 12.072 60.54 13.9861 60.54 16.3991V26.1092H55.0759V16.7124C55.0759 15.5987 54.7975 14.7286 54.2407 14.1021C53.707 13.4757 52.953 13.1625 51.9785 13.1625C50.9112 13.1625 50.0411 13.5221 49.3683 14.2414C48.7186 14.9606 48.3938 15.9003 48.3938 17.0604V26.1092H42.9297V1.74707H48.3938V10.7959C49.7163 9.28773 51.468 8.53366 53.649 8.53366Z" fill="#131115"/>
<path d="M33.4426 26.4916C31.5169 26.4916 29.8347 26.1319 28.3962 25.4127C26.9809 24.6702 25.8788 23.6261 25.0899 22.2804C24.3242 20.9347 23.9414 19.3569 23.9414 17.5472C23.9414 15.7606 24.3358 14.1945 25.1247 12.8488C25.9136 11.4799 27.0157 10.4242 28.431 9.6817C29.8463 8.91604 31.4821 8.5332 33.3382 8.5332C34.6143 8.5332 35.8324 8.76522 36.9925 9.22926C38.1526 9.6701 39.1851 10.3314 40.09 11.213L37.0621 14.5193C36.0877 13.6144 34.9392 13.162 33.6166 13.162C32.3637 13.162 31.3429 13.568 30.554 14.3801C29.7651 15.169 29.3707 16.2131 29.3707 17.5124C29.3707 18.8117 29.7535 19.8674 30.5192 20.6795C31.308 21.4683 32.3405 21.8628 33.6166 21.8628C35.032 21.8628 36.2385 21.3639 37.2362 20.3662L40.3336 23.6377C38.4079 25.5403 36.1109 26.4916 33.4426 26.4916Z" fill="#131115"/>
<path d="M22.5869 25.4479C21.2411 26.1207 19.7214 26.4572 18.0277 26.4572C16.1483 26.4572 14.6634 25.9351 13.5729 24.891C12.4824 23.8237 11.9371 22.1184 11.9371 19.775V13.2668H9.01367V8.91642H11.9371L17.3664 8.91602V8.91642H21.6472V13.2668H17.3664V19.775C17.3664 20.471 17.5404 20.9931 17.8884 21.3411C18.2365 21.6659 18.7121 21.8283 19.3154 21.8283C19.9882 21.8283 20.6495 21.6659 21.2991 21.3411L22.5869 25.4479Z" fill="#131115"/>
<path d="M0.683594 8.91602H6.14767V26.1087H0.683594V8.91602Z" fill="#131115"/>
<path d="M17.9358 8.30806C16.3335 12.2427 14.6921 14.403 13.0157 13.7843C11.6065 13.2643 11.5246 9.96926 12.8326 6.42475C14.1407 2.88023 16.3435 0.428429 17.7527 0.94849C19.1619 1.46855 19.2439 4.76354 17.9358 8.30806Z" fill="#131115"/>
<path d="M112.948 8.30805C111.345 12.2427 109.937 13.5026 108.261 12.884C106.851 12.3639 106.536 9.96926 107.844 6.42475C109.152 2.88023 111.355 0.428429 112.764 0.94849C114.174 1.46855 114.256 4.76354 112.948 8.30805Z" fill="#131115"/>
</svg>
