<svg width="20" height="18" viewBox="0 0 20 18" fill="none" xmlns="http://www.w3.org/2000/svg">
<path fill-rule="evenodd" clip-rule="evenodd" d="M7.37352 12.3549C5.57025 16.0823 3.88819 17.6859 2.25681 17.0717C0.512381 16.4148 0.478912 12.2846 2.13407 7.79967C3.78923 3.31474 6.37343 0.137499 8.25067 0.830291C9.47165 1.28089 9.74567 3.52486 9.29011 6.37043L9.2958 6.37232C9.0958 7.72232 9.14112 8.17306 9.31969 8.42306C9.56969 8.77306 9.96552 8.86056 10.1322 8.86056C10.9322 8.81056 11.6649 7.94755 11.8855 7.46022L11.9453 7.33883C12.9477 5.19505 15.6082 0.191713 17.7995 0.949319C19.5353 1.5494 19.436 5.73551 17.9223 10.2213C15.811 15.8605 13.436 17.673 11.8057 17.1907C10.271 16.7367 10.1423 14.1219 10.8592 10.8711C10.9902 9.95173 10.7737 9.54103 10.6322 9.42306C10.3322 9.17306 9.95254 9.13398 9.69469 9.17306C8.81675 9.30613 8.01521 11.0107 7.51581 12.0727C7.46794 12.1745 7.42285 12.2704 7.38073 12.3584L7.37352 12.3549Z" fill="black"/>
</svg>
