<svg xmlns="http://www.w3.org/2000/svg" width="186" height="59" viewBox="0 0 186 59" fill="none">
    <path d="M176.871 38.3805C178.746 39.243 180.189 40.443 181.202 41.9805C182.252 43.4805 182.777 45.2242 182.777 47.2117C182.777 49.5367 182.139 51.5805 180.864 53.343C179.589 55.143 177.789 56.5117 175.464 57.4492C173.139 58.4242 170.439 58.9117 167.364 58.9117C164.364 58.9117 161.739 58.4242 159.489 57.4492C157.239 56.4742 155.495 55.0867 154.258 53.2867C153.058 51.4867 152.458 49.4055 152.458 47.043C152.458 46.443 152.477 45.993 152.514 45.693H161.008C160.933 47.5305 161.439 48.9555 162.527 49.968C163.652 50.9805 165.264 51.4867 167.364 51.4867C169.239 51.4867 170.758 51.0555 171.921 50.193C173.083 49.368 173.664 48.2617 173.664 46.8742C173.664 45.4492 173.121 44.343 172.033 43.5555C170.983 42.8055 169.464 42.4305 167.477 42.4305C164.402 42.4305 161.702 41.8492 159.377 40.6867C157.089 39.5242 155.308 37.893 154.033 35.793C152.796 33.6555 152.177 31.1805 152.177 28.368C152.177 25.668 152.814 23.268 154.089 21.168C155.402 19.0305 157.202 17.3805 159.489 16.218C161.814 15.018 164.458 14.418 167.421 14.418C169.708 14.418 171.808 14.868 173.721 15.768L179.739 20.718C181.614 22.8555 182.552 25.4055 182.552 28.368C182.552 30.4305 182.046 32.343 181.033 34.1055C180.058 35.8305 178.671 37.2555 176.871 38.3805ZM167.421 34.9492C169.371 34.9492 170.946 34.3492 172.146 33.1492C173.346 31.9492 173.945 30.3555 173.945 28.368C173.945 26.3805 173.346 24.8055 172.146 23.643C170.983 22.443 169.408 21.843 167.421 21.843C165.471 21.843 163.895 22.443 162.695 23.643C161.495 24.8055 160.896 26.3805 160.896 28.368C160.896 30.318 161.495 31.9117 162.695 33.1492C163.895 34.3492 165.471 34.9492 167.421 34.9492Z" fill="#131115"/>
    <path d="M136.137 14.5312C139.587 14.5312 142.324 15.6562 144.349 17.9062C146.412 20.1562 147.443 23.2687 147.443 27.2437V42.9375H138.612V27.75C138.612 25.95 138.162 24.5437 137.262 23.5312C136.362 22.5187 135.124 22.0125 133.549 22.0125C131.824 22.0125 130.437 22.5937 129.387 23.7562C128.337 24.9187 127.812 26.4375 127.812 28.3125V42.9375H118.98V15.15H126.63L127.193 18.4125C128.28 17.175 129.574 16.2187 131.074 15.5437C132.612 14.8687 134.299 14.5312 136.137 14.5312Z" fill="#131115"/>
    <path d="M103.489 15.1494H112.321V42.9369H103.489V15.1494Z" fill="#131115"/>
    <path d="M86.0428 14.5313C89.4553 14.5313 92.1553 15.675 94.1428 17.9625C96.1678 20.25 97.1803 23.3438 97.1803 27.2438V42.9375H88.349V27.75C88.349 25.95 87.899 24.5438 86.999 23.5313C86.1365 22.5188 84.9178 22.0125 83.3428 22.0125C81.6178 22.0125 80.2115 22.5938 79.124 23.7563C78.074 24.9188 77.549 26.4375 77.549 28.3125V42.9375H68.7178V3.5625H77.549V18.1875C79.6865 15.75 82.5178 14.5313 86.0428 14.5313Z" fill="#131115"/>
    <path d="M53.3855 43.5562C50.273 43.5562 47.5543 42.975 45.2293 41.8125C42.9418 40.6125 41.1605 38.925 39.8855 36.75C38.648 34.575 38.0293 32.025 38.0293 29.1C38.0293 26.2125 38.6668 23.6812 39.9418 21.5062C41.2168 19.2937 42.998 17.5875 45.2855 16.3875C47.573 15.15 50.2168 14.5312 53.2168 14.5312C55.2793 14.5312 57.248 14.9062 59.123 15.6562C60.998 16.3687 62.6668 17.4375 64.1293 18.8625L59.2355 24.2063C57.6605 22.7438 55.8043 22.0125 53.6668 22.0125C51.6418 22.0125 49.9918 22.6687 48.7168 23.9812C47.4418 25.2562 46.8043 26.9437 46.8043 29.0437C46.8043 31.1437 47.423 32.85 48.6605 34.1625C49.9355 35.4375 51.6043 36.075 53.6668 36.075C55.9543 36.075 57.9043 35.2687 59.5168 33.6562L64.5231 38.9438C61.4106 42.0188 57.698 43.5562 53.3855 43.5562Z" fill="#131115"/>
    <path d="M35.8418 41.8688C33.6668 42.9563 31.2106 43.5001 28.473 43.5001C25.4355 43.5001 23.0355 42.6563 21.273 40.9688C19.5105 39.2438 18.6293 36.4876 18.6293 32.7001V22.1813H13.9043V15.1501H18.6293L27.4043 15.1494V15.1501H34.323V22.1813H27.4043V32.7001C27.4043 33.8251 27.6855 34.6688 28.2481 35.2313C28.8106 35.7563 29.5793 36.0188 30.5543 36.0188C31.6418 36.0188 32.7105 35.7563 33.7605 35.2313L35.8418 41.8688Z" fill="#131115"/>
    <path d="M0.4375 15.1494H9.26875V42.9369H0.4375V15.1494Z" fill="#131115"/>
    <path d="M28.3202 14.1668C25.7305 20.5261 23.0776 24.0176 20.3681 23.0177C18.0905 22.1771 17.9581 16.8517 20.0723 11.1229C22.1865 5.3941 25.7467 1.43139 28.0243 2.27194C30.3019 3.11248 30.4344 8.43797 28.3202 14.1668Z" fill="#131115"/>
    <path d="M181.883 14.1668C179.293 20.5261 177.017 22.5624 174.308 21.5625C172.03 20.722 171.521 16.8517 173.635 11.1229C175.749 5.3941 179.309 1.43139 181.587 2.27194C183.864 3.11248 183.997 8.43797 181.883 14.1668Z" fill="#131115"/>
</svg>