<svg width="200" height="88" viewBox="0 0 200 88" fill="none" xmlns="http://www.w3.org/2000/svg">
<path d="M184.871 44.3814C186.746 45.2439 188.189 46.4439 189.202 47.9814C190.252 49.4814 190.777 51.2252 190.777 53.2127C190.777 55.5377 190.139 57.5814 188.864 59.3439C187.589 61.1439 185.789 62.5127 183.464 63.4502C181.139 64.4252 178.439 64.9127 175.364 64.9127C172.364 64.9127 169.739 64.4252 167.489 63.4502C165.239 62.4752 163.495 61.0877 162.258 59.2877C161.058 57.4877 160.458 55.4064 160.458 53.0439C160.458 52.4439 160.477 51.9939 160.514 51.6939H169.008C168.933 53.5314 169.439 54.9564 170.527 55.9689C171.652 56.9814 173.264 57.4877 175.364 57.4877C177.239 57.4877 178.758 57.0564 179.921 56.1939C181.083 55.3689 181.664 54.2627 181.664 52.8752C181.664 51.4502 181.121 50.3439 180.033 49.5564C178.983 48.8064 177.464 48.4314 175.477 48.4314C172.402 48.4314 169.702 47.8502 167.377 46.6877C165.089 45.5252 163.308 43.8939 162.033 41.7939C160.796 39.6564 160.177 37.1814 160.177 34.3689C160.177 31.6689 160.814 29.2689 162.089 27.1689C163.402 25.0314 165.202 23.3814 167.489 22.2189C169.814 21.0189 172.458 20.4189 175.421 20.4189C177.708 20.4189 179.808 20.8689 181.721 21.7689L187.739 26.7189C189.614 28.8564 190.552 31.4064 190.552 34.3689C190.552 36.4314 190.046 38.3439 189.033 40.1064C188.058 41.8314 186.671 43.2564 184.871 44.3814ZM175.421 40.9502C177.371 40.9502 178.946 40.3502 180.146 39.1502C181.346 37.9502 181.945 36.3564 181.945 34.3689C181.945 32.3814 181.346 30.8064 180.146 29.6439C178.983 28.4439 177.408 27.8439 175.421 27.8439C173.471 27.8439 171.895 28.4439 170.695 29.6439C169.495 30.8064 168.896 32.3814 168.896 34.3689C168.896 36.3189 169.495 37.9127 170.695 39.1502C171.895 40.3502 173.471 40.9502 175.421 40.9502Z" fill="#131115"/>
<path d="M144.137 20.5312C147.587 20.5312 150.324 21.6562 152.349 23.9062C154.412 26.1562 155.443 29.2687 155.443 33.2437V48.9375H146.612V33.75C146.612 31.95 146.162 30.5437 145.262 29.5312C144.362 28.5187 143.124 28.0125 141.549 28.0125C139.824 28.0125 138.437 28.5937 137.387 29.7562C136.337 30.9187 135.812 32.4375 135.812 34.3125V48.9375H126.98V21.15H134.63L135.193 24.4125C136.28 23.175 137.574 22.2187 139.074 21.5437C140.612 20.8687 142.299 20.5312 144.137 20.5312Z" fill="#131115"/>
<path d="M111.489 21.1494H120.321V48.9369H111.489V21.1494Z" fill="#131115"/>
<path d="M94.0428 20.5313C97.4553 20.5313 100.155 21.675 102.143 23.9625C104.168 26.25 105.18 29.3438 105.18 33.2438V48.9375H96.349V33.75C96.349 31.95 95.899 30.5438 94.999 29.5313C94.1365 28.5188 92.9178 28.0125 91.3428 28.0125C89.6178 28.0125 88.2115 28.5938 87.124 29.7563C86.074 30.9188 85.549 32.4375 85.549 34.3125V48.9375H76.7178V9.5625H85.549V24.1875C87.6865 21.75 90.5178 20.5313 94.0428 20.5313Z" fill="#131115"/>
<path d="M61.3855 49.5562C58.273 49.5562 55.5543 48.975 53.2293 47.8125C50.9418 46.6125 49.1605 44.925 47.8855 42.75C46.648 40.575 46.0293 38.025 46.0293 35.1C46.0293 32.2125 46.6668 29.6812 47.9418 27.5062C49.2168 25.2937 50.998 23.5875 53.2855 22.3875C55.573 21.15 58.2168 20.5312 61.2168 20.5312C63.2793 20.5312 65.248 20.9062 67.123 21.6562C68.998 22.3687 70.6668 23.4375 72.1293 24.8625L67.2355 30.2063C65.6605 28.7438 63.8043 28.0125 61.6668 28.0125C59.6418 28.0125 57.9918 28.6687 56.7168 29.9812C55.4418 31.2563 54.8043 32.9437 54.8043 35.0437C54.8043 37.1437 55.423 38.85 56.6605 40.1625C57.9355 41.4375 59.6043 42.075 61.6668 42.075C63.9543 42.075 65.9043 41.2687 67.5168 39.6562L72.5231 44.9438C69.4105 48.0188 65.698 49.5562 61.3855 49.5562Z" fill="#131115"/>
<path d="M43.8418 47.8688C41.6668 48.9563 39.2106 49.5001 36.473 49.5001C33.4355 49.5001 31.0355 48.6563 29.273 46.9688C27.5105 45.2438 26.6293 42.4876 26.6293 38.7001V28.1813H21.9043V21.1501H26.6293L35.4043 21.1494V21.1501H42.323V28.1813H35.4043V38.7001C35.4043 39.8251 35.6855 40.6688 36.2481 41.2313C36.8105 41.7563 37.5793 42.0188 38.5543 42.0188C39.6418 42.0188 40.7105 41.7563 41.7605 41.2313L43.8418 47.8688Z" fill="#131115"/>
<path d="M8.4375 21.1494H17.2687V48.9369H8.4375V21.1494Z" fill="#131115"/>
<path d="M36.3202 20.1668C33.7305 26.5261 31.0776 30.0176 28.3681 29.0177C26.0905 28.1771 25.9581 22.8517 28.0723 17.1229C30.1865 11.3941 33.7467 7.43139 36.0243 8.27194C38.3019 9.11248 38.4344 14.438 36.3202 20.1668Z" fill="#131115"/>
<path d="M189.883 20.1668C187.293 26.5261 185.017 28.5624 182.308 27.5625C180.03 26.722 179.521 22.8517 181.635 17.1229C183.749 11.3941 187.309 7.43139 189.587 8.27194C191.864 9.11248 191.997 14.438 189.883 20.1668Z" fill="#131115"/>
</svg>
