<svg width="24" height="24" viewBox="0 0 24 24" fill="none" xmlns="http://www.w3.org/2000/svg">
<g id="Logo_wb" clip-path="url(#clip0_1827_10775)">
<g id="Subtract">
<path fill-rule="evenodd" clip-rule="evenodd" d="M8.40288 2.85605C8.46104 1.5041 7.19291 1.09705 6.64865 1.02908C4.99666 0.822781 4.64898 0.978259 4.99991 1.76001C5.17712 2.15478 5.49045 2.55026 5.49045 2.55026C5.49045 2.55026 6.06982 3.27259 5.73174 3.49437C3.46705 4.98002 1.91938 8.75969 1.62273 9.75794C-0.689805 17.4627 2.64511 18.7984 5.24762 19.3531C6.38702 19.5959 7.21808 19.3325 8.01292 19.0805C8.59048 18.8974 9.1489 18.7204 9.79259 18.7481C10.3966 18.7741 11.2192 18.9466 12.1424 19.1403C13.8601 19.5007 15.926 19.9341 17.58 19.6321C20.1229 19.1677 21.9874 17.4934 22.5574 16.0557C24.5137 11.1214 21.2217 6.50684 19.1583 4.33953C18.9181 3.88194 19.1222 3.70494 19.3347 3.52062C19.3879 3.4745 19.4416 3.42793 19.489 3.3764C19.5255 3.33678 19.5606 3.29873 19.5943 3.26212C20.1227 2.68941 20.3282 2.46664 20.3476 2.01542C20.2745 1.00437 18.2713 0.679742 16.7635 0.92891C16.2158 1.01942 15.6262 1.35598 15.1054 1.65325C14.8026 1.8261 14.5231 1.98566 14.2886 2.07586C13.8577 2.2416 13.4819 2.22227 13.1598 2.20571C12.9831 2.19662 12.8225 2.18836 12.6779 2.21197C11.4977 2.40476 10.6966 3.22761 10.4418 3.65519C9.90972 4.57281 9.8093 5.72734 10.1894 6.62035C10.7878 8.02639 11.1949 10.3865 11.2083 10.9598C11.2767 13.8813 9.63239 14.8588 8.62979 15.1737C8.01228 15.3676 7.1948 15.2113 6.82418 14.9926C5.29545 14.0909 4.83636 12.6165 4.87703 11.6712C4.99374 8.95803 6.36821 6.26755 6.99893 5.60645C7.72187 4.64817 8.36257 3.79298 8.40288 2.85605ZM15.2514 8.89514C15.7189 8.89514 16.0505 8.47473 16.0505 8.07234C16.0505 7.66996 15.6927 7.07683 15.2514 7.07683C14.8102 7.07683 14.4524 7.66996 14.4524 8.07234C14.4524 8.47473 14.7839 8.89514 15.2514 8.89514Z" fill="#F1853C"/>
<path d="M6.64865 1.02908L6.63397 1.1467H6.63397L6.64865 1.02908ZM8.40288 2.85605L8.28446 2.85095L8.40288 2.85605ZM4.99991 1.76001L4.89178 1.80855V1.80855L4.99991 1.76001ZM5.49045 2.55026L5.39754 2.62386L5.39799 2.62442L5.49045 2.55026ZM5.73174 3.49437L5.66673 3.39527L5.73174 3.49437ZM1.62273 9.75794L1.73625 9.79201L1.73634 9.7917L1.62273 9.75794ZM5.24762 19.3531L5.27233 19.2372L5.24762 19.3531ZM8.01292 19.0805L8.04874 19.1935H8.04874L8.01292 19.0805ZM9.79259 18.7481L9.7875 18.8665L9.79259 18.7481ZM12.1424 19.1403L12.118 19.2563L12.1424 19.1403ZM17.58 19.6321L17.6013 19.7487H17.6013L17.58 19.6321ZM22.5574 16.0557L22.6676 16.0994L22.5574 16.0557ZM19.1583 4.33953L19.0534 4.39463L19.0611 4.40928L19.0725 4.42126L19.1583 4.33953ZM19.3347 3.52062L19.4124 3.61016V3.61016L19.3347 3.52062ZM19.489 3.3764L19.4018 3.29616V3.29616L19.489 3.3764ZM19.5943 3.26212L19.6815 3.34249V3.34249L19.5943 3.26212ZM20.3476 2.01542L20.4668 2.02055L20.4658 2.00688L20.3476 2.01542ZM16.7635 0.92891L16.7828 1.04585L16.7635 0.92891ZM15.1054 1.65325L15.0467 1.55032V1.55032L15.1054 1.65325ZM14.2886 2.07586L14.3312 2.18648V2.18648L14.2886 2.07586ZM13.1598 2.20571L13.1659 2.08734L13.1598 2.20571ZM12.6779 2.21197L12.6588 2.095L12.6779 2.21197ZM10.4418 3.65519L10.34 3.59451L10.3393 3.59573L10.4418 3.65519ZM10.1894 6.62035L10.2985 6.57393L10.1894 6.62035ZM11.2083 10.9598L11.0898 10.9626V10.9626L11.2083 10.9598ZM8.62979 15.1737L8.59428 15.0606L8.62979 15.1737ZM6.82418 14.9926L6.76396 15.0947L6.82418 14.9926ZM4.87703 11.6712L4.99544 11.6763L4.87703 11.6712ZM6.99893 5.60645L7.08526 5.68881L7.09354 5.67783L6.99893 5.60645ZM6.63397 1.1467C6.89292 1.17903 7.32467 1.29284 7.68122 1.55639C8.03234 1.81592 8.3116 2.22018 8.28446 2.85095L8.52129 2.86114C8.55232 2.13997 8.22659 1.66473 7.82212 1.36576C7.42309 1.07081 6.94864 0.947103 6.66334 0.911474L6.63397 1.1467ZM5.10804 1.71147C5.02172 1.51919 4.98863 1.38591 4.99536 1.29582C4.99848 1.25396 5.01004 1.22431 5.02708 1.20126C5.04452 1.17768 5.0731 1.15375 5.12128 1.13235C5.22186 1.0877 5.38792 1.06265 5.64374 1.06484C5.89629 1.06701 6.22243 1.0953 6.63397 1.1467L6.66334 0.911474C6.24888 0.859716 5.91206 0.830083 5.64577 0.827804C5.38273 0.825552 5.17406 0.849557 5.02509 0.9157C4.94849 0.949709 4.88359 0.99661 4.83647 1.06034C4.78896 1.1246 4.7649 1.19874 4.75897 1.27817C4.74758 1.43064 4.80263 1.60995 4.89178 1.80855L5.10804 1.71147ZM5.49045 2.55026C5.58335 2.47666 5.58336 2.47666 5.58336 2.47667C5.58336 2.47667 5.58336 2.47668 5.58336 2.47668C5.58337 2.47668 5.58336 2.47667 5.58335 2.47666C5.58333 2.47664 5.5833 2.47659 5.58324 2.47652C5.58313 2.47638 5.58295 2.47615 5.58269 2.47582C5.58218 2.47517 5.58137 2.47414 5.58029 2.47276C5.57812 2.46998 5.57485 2.46577 5.57058 2.46022C5.56203 2.44911 5.5495 2.43265 5.53385 2.41159C5.50253 2.36946 5.45885 2.3091 5.40974 2.23666C5.31096 2.09096 5.19261 1.89986 5.10804 1.71147L4.89178 1.80855C4.98443 2.01493 5.11134 2.21895 5.21353 2.36968C5.2649 2.44546 5.31063 2.50865 5.3436 2.553C5.36009 2.57519 5.37342 2.59271 5.3827 2.60477C5.38734 2.6108 5.39097 2.61547 5.39348 2.61869C5.39474 2.62029 5.39571 2.62154 5.3964 2.6224C5.39674 2.62284 5.397 2.62318 5.3972 2.62342C5.39729 2.62354 5.39737 2.62364 5.39743 2.62371C5.39746 2.62375 5.39748 2.62378 5.3975 2.62381C5.39751 2.62382 5.39752 2.62383 5.39753 2.62384C5.39754 2.62385 5.39755 2.62386 5.49045 2.55026ZM5.79675 3.59347C5.92819 3.50725 5.96357 3.37168 5.95491 3.24519C5.94657 3.1234 5.89794 2.9959 5.8442 2.88678C5.78946 2.77563 5.72418 2.67322 5.6733 2.59935C5.64771 2.5622 5.62541 2.53177 5.6094 2.51048C5.60139 2.49983 5.59493 2.49144 5.5904 2.48562C5.58813 2.4827 5.58634 2.48043 5.58507 2.47883C5.58444 2.47803 5.58394 2.4774 5.58358 2.47694C5.5834 2.47672 5.58325 2.47653 5.58314 2.47639C5.58308 2.47632 5.58303 2.47626 5.58299 2.47621C5.58298 2.47619 5.58295 2.47616 5.58294 2.47615C5.58292 2.47612 5.58291 2.4761 5.49045 2.55026C5.39799 2.62442 5.39798 2.6244 5.39796 2.62439C5.39796 2.62439 5.39795 2.62437 5.39795 2.62437C5.39795 2.62437 5.39795 2.62437 5.39797 2.62439C5.398 2.62443 5.39806 2.6245 5.39815 2.62462C5.39834 2.62486 5.39867 2.62527 5.39912 2.62585C5.40003 2.627 5.40146 2.6288 5.40335 2.63124C5.40713 2.6361 5.41279 2.64344 5.41996 2.65298C5.43431 2.67206 5.45464 2.69979 5.47808 2.73382C5.52527 2.80232 5.5837 2.89436 5.63154 2.99151C5.68039 3.0907 5.71321 3.18536 5.71842 3.26139C5.7233 3.33271 5.70433 3.3706 5.66673 3.39527L5.79675 3.59347ZM1.73634 9.7917C1.88195 9.30172 2.33941 8.11539 3.04249 6.86709C3.74681 5.61659 4.68853 4.32047 5.79675 3.59347L5.66673 3.39527C4.51025 4.15392 3.54579 5.49046 2.83595 6.75076C2.12486 8.01328 1.66016 9.21591 1.50911 9.72418L1.73634 9.7917ZM5.27233 19.2372C3.97478 18.9606 2.5342 18.4958 1.69201 17.1731C0.849874 15.8505 0.583456 13.6328 1.73625 9.79201L1.5092 9.72387C0.349465 13.5878 0.594237 15.8903 1.49205 17.3004C2.38981 18.7104 3.91794 19.1909 5.22291 19.469L5.27233 19.2372ZM7.97711 18.9675C7.18346 19.2191 6.37875 19.473 5.27233 19.2372L5.22291 19.469C6.39528 19.7189 7.25271 19.4458 8.04874 19.1935L7.97711 18.9675ZM9.79769 18.6297C9.13001 18.601 8.55231 18.7852 7.97711 18.9675L8.04874 19.1935C8.62864 19.0097 9.16779 18.8398 9.7875 18.8665L9.79769 18.6297ZM12.1667 19.0243C11.2477 18.8315 10.4138 18.6562 9.79769 18.6297L9.7875 18.8665C10.3795 18.892 11.1908 19.0618 12.118 19.2563L12.1667 19.0243ZM17.5587 19.5155C15.9323 19.8125 13.8915 19.3862 12.1667 19.0243L12.118 19.2563C13.8287 19.6152 15.9197 20.0557 17.6013 19.7487L17.5587 19.5155ZM22.4472 16.012C21.8944 17.4064 20.0674 19.0574 17.5587 19.5155L17.6013 19.7487C20.1785 19.2781 22.0804 17.5804 22.6676 16.0994L22.4472 16.012ZM19.0725 4.42126C20.0982 5.49859 21.4267 7.18186 22.2556 9.20492C23.0838 11.2264 23.4111 13.5809 22.4472 16.012L22.6676 16.0994C23.66 13.5962 23.3194 11.1762 22.4749 9.11505C21.6311 7.05543 20.2819 5.34778 19.2442 4.25781L19.0725 4.42126ZM19.2571 3.43107C19.1559 3.51883 19.0261 3.62808 18.966 3.7853C18.902 3.95272 18.924 4.14818 19.0534 4.39463L19.2633 4.28444C19.1524 4.0733 19.1563 3.95146 19.1874 3.8699C19.2225 3.77814 19.301 3.70672 19.4124 3.61016L19.2571 3.43107ZM19.4018 3.29616C19.3597 3.34194 19.3112 3.38418 19.2571 3.43107L19.4124 3.61016C19.4647 3.56483 19.5236 3.51393 19.5763 3.45664L19.4018 3.29616ZM19.5072 3.18176C19.4735 3.21836 19.4383 3.25646 19.4018 3.29616L19.5763 3.45664C19.6126 3.41709 19.6477 3.37911 19.6815 3.34249L19.5072 3.18176ZM20.2292 2.01033C20.2119 2.41053 20.0427 2.6013 19.5072 3.18176L19.6815 3.34249C20.2026 2.77751 20.4444 2.52275 20.466 2.02052L20.2292 2.01033ZM16.7828 1.04585C17.5229 0.923544 18.384 0.942629 19.0645 1.1145C19.405 1.20049 19.6926 1.32283 19.897 1.47838C20.0997 1.63269 20.2142 1.81414 20.2294 2.02397L20.4658 2.00688C20.4444 1.71118 20.2811 1.4729 20.0406 1.28977C19.8016 1.10788 19.4805 0.975068 19.1226 0.884666C18.4062 0.703751 17.5118 0.685108 16.7441 0.811971L16.7828 1.04585ZM15.1642 1.75619C15.6905 1.45575 16.2603 1.13218 16.7828 1.04585L16.7441 0.811971C16.1712 0.906654 15.5619 1.25621 15.0467 1.55032L15.1642 1.75619ZM14.3312 2.18648C14.576 2.09233 14.8643 1.92739 15.1642 1.75619L15.0467 1.55032C14.741 1.7248 14.4703 1.879 14.2461 1.96524L14.3312 2.18648ZM13.1537 2.32407C13.476 2.34065 13.8746 2.36211 14.3312 2.18648L14.2461 1.96524C13.8409 2.12109 13.4877 2.10389 13.1659 2.08734L13.1537 2.32407ZM12.697 2.32895C12.8266 2.30778 12.9736 2.31481 13.1537 2.32407L13.1659 2.08734C12.9925 2.07842 12.8184 2.06894 12.6588 2.095L12.697 2.32895ZM10.5437 3.71586C10.7846 3.31155 11.5585 2.51493 12.697 2.32895L12.6588 2.095C11.437 2.29459 10.6087 3.14367 10.34 3.59452L10.5437 3.71586ZM10.2985 6.57393C9.93459 5.71906 10.0288 4.60371 10.5444 3.71464L10.3393 3.59573C9.79063 4.54191 9.68401 5.73562 10.0803 6.66677L10.2985 6.57393ZM11.3268 10.957C11.3198 10.6585 11.2126 9.91593 11.0342 9.07769C10.8554 8.23761 10.6021 7.28738 10.2985 6.57393L10.0803 6.66677C10.3751 7.35937 10.6246 8.29222 10.8023 9.12704C10.9804 9.96369 11.0834 10.6878 11.0898 10.9626L11.3268 10.957ZM8.6653 15.2868C9.18151 15.1247 9.86596 14.7911 10.4126 14.119C10.9607 13.4452 11.3615 12.4418 11.3268 10.957L11.0898 10.9626C11.1234 12.3993 10.7363 13.3454 10.2287 13.9695C9.71968 14.5953 9.08067 14.9079 8.59428 15.0606L8.6653 15.2868ZM6.76396 15.0947C6.96736 15.2147 7.28124 15.3119 7.61928 15.3554C7.95831 15.3991 8.33536 15.3904 8.6653 15.2868L8.59428 15.0606C8.30671 15.1509 7.96627 15.1611 7.64953 15.1203C7.3318 15.0795 7.05163 14.9892 6.8844 14.8905L6.76396 15.0947ZM4.75861 11.6661C4.71633 12.649 5.19253 14.1678 6.76396 15.0947L6.8844 14.8905C5.39837 14.014 4.9564 12.584 4.99544 11.6763L4.75861 11.6661ZM6.91317 5.52463C6.58205 5.8717 6.074 6.72643 5.63515 7.82534C5.19474 8.92816 4.8177 10.2925 4.75861 11.6661L4.99544 11.6763C5.05307 10.3367 5.42161 8.99924 5.8553 7.91325C6.29054 6.82335 6.78508 6.0023 7.08468 5.68826L6.91317 5.52463ZM8.28446 2.85095C8.26542 3.29367 8.10433 3.72297 7.85379 4.16478C7.60273 4.6075 7.26683 5.05454 6.90431 5.53506L7.09354 5.67783C7.45397 5.20008 7.79988 4.74039 8.05999 4.28171C8.32062 3.82212 8.50003 3.35536 8.52129 2.86114L8.28446 2.85095ZM15.932 8.07234C15.932 8.42011 15.6431 8.77662 15.2514 8.77662V9.01367C15.7947 9.01367 16.169 8.52934 16.169 8.07234H15.932ZM15.2514 7.19536C15.4177 7.19536 15.5864 7.30914 15.7206 7.49346C15.8537 7.67617 15.932 7.90116 15.932 8.07234H16.169C16.169 7.84114 16.0684 7.56838 15.9123 7.35393C15.7573 7.14109 15.5265 6.95831 15.2514 6.95831V7.19536ZM14.5709 8.07234C14.5709 7.90116 14.6492 7.67617 14.7823 7.49346C14.9165 7.30914 15.0852 7.19536 15.2514 7.19536V6.95831C14.9764 6.95831 14.7456 7.14109 14.5906 7.35393C14.4345 7.56838 14.3339 7.84114 14.3339 8.07234H14.5709ZM15.2514 8.77662C14.8598 8.77662 14.5709 8.42011 14.5709 8.07234H14.3339C14.3339 8.52934 14.7081 9.01367 15.2514 9.01367V8.77662Z" fill="#F1853C"/>
</g>
<path id="Union" fill-rule="evenodd" clip-rule="evenodd" d="M9.25503 21.2426C9.23497 21.2272 9.21353 21.2128 9.19071 21.1996L6.78436 19.8103C6.40711 19.5925 5.93555 19.8648 5.93555 20.3004L5.93555 23.079C5.93555 23.5146 6.40711 23.7868 6.78436 23.569L9.19071 22.1797C9.21353 22.1666 9.23497 22.1522 9.25503 22.1368C9.27509 22.1522 9.29653 22.1666 9.31935 22.1797L11.7257 23.569C12.1029 23.7868 12.5745 23.5146 12.5745 23.079V20.3004C12.5745 19.8648 12.1029 19.5925 11.7257 19.8103L9.31935 21.1996C9.29653 21.2128 9.27509 21.2272 9.25503 21.2426Z" fill="#F1853C"/>
<path id="Union_2" fill-rule="evenodd" clip-rule="evenodd" d="M6.06561 11.5306C6.43364 11.104 6.96929 11.0713 7.49463 11.0688V14.6572C6.73282 14.6121 6.09287 14.174 5.74743 13.521C5.43197 12.9247 5.54717 12.1314 6.06561 11.5306ZM8.92578 11.5307C8.55847 11.105 8.00962 11.0716 7.4964 11.069V14.658C8.25738 14.6209 8.8888 14.2539 9.24396 13.5212C9.66271 12.6572 9.244 11.8995 8.92578 11.5307Z" fill="#F1853C"/>
</g>
<defs>
<clipPath id="clip0_1827_10775">
<rect width="24" height="24" fill="white"/>
</clipPath>
</defs>
</svg>
