<svg width="16" height="16" viewBox="0 0 16 16" fill="none" xmlns="http://www.w3.org/2000/svg">
<g clip-path="url(#clip0_2426_4274)">
<path fill-rule="evenodd" clip-rule="evenodd" d="M5.60094 1.90403C5.63971 1.00273 4.79429 0.731368 4.43146 0.686056C3.33013 0.54852 3.09834 0.652173 3.3323 1.17334C3.45044 1.43652 3.65932 1.70017 3.65932 1.70017C3.65932 1.70017 4.04557 2.18172 3.82018 2.32958C2.31039 3.32001 1.27861 5.83979 1.08084 6.50529C-0.460847 11.6418 1.76243 12.5323 3.49744 12.9021C4.25703 13.064 4.81108 12.8883 5.34097 12.7203C5.72601 12.5983 6.09829 12.4803 6.52742 12.4987C6.93012 12.516 7.4785 12.6311 8.09393 12.7602C9.23909 13.0005 10.6164 13.2894 11.719 13.088C13.4143 12.7785 14.6573 11.6623 15.0373 10.7038C16.3415 7.41425 14.1469 4.33789 12.7712 2.89302C12.6111 2.58796 12.7471 2.46996 12.8889 2.34708C12.9243 2.31634 12.9601 2.28529 12.9917 2.25093C13.016 2.22452 13.0394 2.19915 13.0619 2.17474C13.4141 1.79294 13.5511 1.64443 13.5641 1.34362C13.5153 0.669578 12.1799 0.453161 11.1747 0.619273C10.8095 0.679612 10.4165 0.903985 10.0693 1.10217C9.86746 1.2174 9.68111 1.32378 9.52478 1.38391C9.23752 1.4944 8.98695 1.48151 8.77222 1.47047C8.6544 1.46441 8.54736 1.45891 8.45098 1.47465C7.66418 1.60317 7.1301 2.15174 6.96025 2.43679C6.6055 3.04854 6.53856 3.81823 6.79195 4.41357C7.19092 5.35093 7.46227 6.92435 7.47122 7.30653C7.51681 9.25422 6.42062 9.90589 5.75222 10.1158C5.34055 10.2451 4.79556 10.1408 4.54848 9.99509C3.52932 9.39391 3.22327 8.41101 3.25038 7.78079C3.32818 5.97202 4.24449 4.17836 4.66497 3.73763C5.14693 3.09878 5.57407 2.52866 5.60094 1.90403ZM10.1667 5.93009C10.4784 5.93009 10.6994 5.64982 10.6994 5.38156C10.6994 5.11331 10.4609 4.71789 10.1667 4.71789C9.87253 4.71789 9.63404 5.11331 9.63404 5.38156C9.63404 5.64982 9.85506 5.93009 10.1667 5.93009Z" fill="#EA9C00"/>
<path d="M4.43146 0.686056L4.42167 0.764463L4.43146 0.686056ZM5.60094 1.90403L5.522 1.90064V1.90064L5.60094 1.90403ZM3.3323 1.17334L3.26021 1.2057V1.2057L3.3323 1.17334ZM3.65932 1.70017L3.59739 1.74924L3.59768 1.74961L3.65932 1.70017ZM3.82018 2.32958L3.77684 2.26351V2.26351L3.82018 2.32958ZM1.08084 6.50529L1.15652 6.52801L1.15658 6.5278L1.08084 6.50529ZM3.49744 12.9021L3.48096 12.9793L3.49744 12.9021ZM5.34097 12.7203L5.31709 12.645L5.34097 12.7203ZM6.52742 12.4987L6.53081 12.4198L6.52742 12.4987ZM8.09393 12.7602L8.11016 12.6829L8.09393 12.7602ZM11.719 13.088L11.7332 13.1658L11.719 13.088ZM15.0373 10.7038L15.1108 10.7329L15.0373 10.7038ZM12.7712 2.89302L12.7013 2.92975L12.7064 2.93952L12.714 2.94751L12.7712 2.89302ZM12.8889 2.34708L12.9406 2.40677V2.40677L12.8889 2.34708ZM12.9917 2.25093L12.9336 2.19744L12.9336 2.19744L12.9917 2.25093ZM13.0619 2.17474L13.0038 2.12117V2.12117L13.0619 2.17474ZM13.5641 1.34362L13.6435 1.34703L13.6429 1.33792L13.5641 1.34362ZM11.1747 0.619273L11.1875 0.697232L11.1747 0.619273ZM10.0693 1.10217L10.0301 1.03355V1.03355L10.0693 1.10217ZM9.52478 1.38391L9.49641 1.31016V1.31016L9.52478 1.38391ZM8.77222 1.47047L8.77628 1.39156L8.77222 1.47047ZM8.45098 1.47465L8.46372 1.55263L8.45098 1.47465ZM6.96025 2.43679L6.89237 2.39634L6.8919 2.39715L6.96025 2.43679ZM6.79195 4.41357L6.71925 4.44451L6.79195 4.41357ZM7.47122 7.30653L7.55021 7.30468L7.47122 7.30653ZM5.75222 10.1158L5.77589 10.1912L5.75222 10.1158ZM4.54848 9.99509L4.50833 10.0631L4.54848 9.99509ZM3.25038 7.78079L3.17143 7.7774L3.25038 7.78079ZM4.66497 3.73763L4.72253 3.79254L4.72805 3.78522L4.66497 3.73763ZM4.43146 0.686056L4.42167 0.764463C4.5943 0.786022 4.88213 0.861891 5.11984 1.03759C5.35392 1.21061 5.54009 1.48012 5.522 1.90064L5.60094 1.90403L5.67989 1.90743C5.70057 1.42665 5.48342 1.10982 5.21377 0.910507C4.94775 0.713872 4.63145 0.631402 4.44125 0.607649L4.43146 0.686056ZM3.3323 1.17334L3.40438 1.14098C3.34684 1.0128 3.32478 0.923941 3.32926 0.863879C3.33135 0.835974 3.33905 0.816208 3.35041 0.800843C3.36203 0.785122 3.38109 0.769164 3.41321 0.754903C3.48026 0.725131 3.59097 0.708436 3.76151 0.709896C3.92988 0.711337 4.14731 0.730201 4.42167 0.764463L4.43146 0.686056L4.44125 0.607649C4.16495 0.573144 3.9404 0.553389 3.76287 0.551869C3.58751 0.550368 3.44839 0.566372 3.34908 0.610467C3.29802 0.633139 3.25475 0.664407 3.22334 0.706893C3.19166 0.749735 3.17562 0.799157 3.17167 0.85211C3.16408 0.953763 3.20078 1.0733 3.26021 1.2057L3.3323 1.17334ZM3.65932 1.70017C3.72126 1.6511 3.72126 1.65111 3.72126 1.65111C3.72126 1.65111 3.72127 1.65112 3.72127 1.65112C3.72127 1.65112 3.72126 1.65111 3.72126 1.65111C3.72125 1.65109 3.72122 1.65106 3.72119 1.65102C3.72111 1.65092 3.72099 1.65077 3.72082 1.65055C3.72047 1.65011 3.71994 1.64943 3.71921 1.6485C3.71777 1.64665 3.71559 1.64385 3.71274 1.64015C3.70704 1.63274 3.69869 1.62176 3.68825 1.60773C3.66738 1.57964 3.63825 1.5394 3.60551 1.49111C3.53966 1.39398 3.46076 1.26657 3.40438 1.14098L3.3323 1.17334L3.26021 1.2057C3.32197 1.34329 3.40658 1.4793 3.47471 1.57979C3.50896 1.63031 3.53944 1.67243 3.56142 1.702C3.57242 1.7168 3.5813 1.72847 3.58749 1.73651C3.59058 1.74054 3.59301 1.74365 3.59468 1.74579C3.59552 1.74686 3.59617 1.74769 3.59662 1.74827C3.59685 1.74856 3.59703 1.74878 3.59715 1.74895C3.59722 1.74903 3.59727 1.74909 3.59731 1.74914C3.59733 1.74917 3.59734 1.74919 3.59736 1.7492C3.59736 1.74921 3.59737 1.74922 3.59737 1.74923C3.59738 1.74923 3.59739 1.74924 3.65932 1.70017ZM3.82018 2.32958L3.86352 2.39565C3.95115 2.33816 3.97474 2.24778 3.96896 2.16346C3.9634 2.08227 3.93098 1.99726 3.89516 1.92452C3.85867 1.85042 3.81515 1.78215 3.78122 1.7329C3.76416 1.70813 3.7493 1.68785 3.73863 1.67366C3.73328 1.66655 3.72898 1.66096 3.72595 1.65708C3.72444 1.65513 3.72325 1.65362 3.72241 1.65255C3.72199 1.65202 3.72165 1.6516 3.72141 1.6513C3.72129 1.65114 3.72119 1.65102 3.72112 1.65093C3.72108 1.65088 3.72105 1.65084 3.72102 1.65081C3.72101 1.65079 3.72099 1.65077 3.72099 1.65077C3.72097 1.65075 3.72096 1.65073 3.65932 1.70017C3.59768 1.74961 3.59767 1.7496 3.59767 1.74959C3.59767 1.74959 3.59766 1.74958 3.59766 1.74958C3.59766 1.74958 3.59766 1.74958 3.59767 1.74959C3.59769 1.74962 3.59773 1.74967 3.59779 1.74975C3.59792 1.74991 3.59814 1.75018 3.59844 1.75056C3.59904 1.75133 3.59999 1.75254 3.60126 1.75416C3.60378 1.7574 3.60755 1.7623 3.61233 1.76865C3.6219 1.78137 3.63545 1.79986 3.65108 1.82255C3.68253 1.86821 3.72149 1.92957 3.75339 1.99434C3.78595 2.06047 3.80783 2.12357 3.8113 2.17426C3.81456 2.22181 3.80191 2.24707 3.77684 2.26351L3.82018 2.32958ZM1.08084 6.50529L1.15658 6.5278C1.25366 6.20115 1.55863 5.41026 2.02735 4.57806C2.4969 3.74439 3.12471 2.88031 3.86352 2.39565L3.82018 2.32958L3.77684 2.26351C3.00586 2.76928 2.36289 3.66031 1.88966 4.50051C1.4156 5.34218 1.1058 6.14394 1.0051 6.48278L1.08084 6.50529ZM3.49744 12.9021L3.51391 12.8248C2.64888 12.6404 1.68849 12.3306 1.12703 11.4487C0.565606 10.567 0.387994 9.08853 1.15652 6.52801L1.08084 6.50529L1.00516 6.48258C0.232 9.05853 0.395182 10.5936 0.993725 11.5336C1.59223 12.4736 2.61098 12.7939 3.48096 12.9793L3.49744 12.9021ZM5.34097 12.7203L5.31709 12.645C4.788 12.8127 4.25152 12.982 3.51391 12.8248L3.49744 12.9021L3.48096 12.9793C4.26255 13.1459 4.83416 12.9639 5.36485 12.7957L5.34097 12.7203ZM6.52742 12.4987L6.53081 12.4198C6.0857 12.4006 5.70057 12.5235 5.31709 12.645L5.34097 12.7203L5.36485 12.7957C5.75145 12.6731 6.11088 12.5599 6.52402 12.5777L6.52742 12.4987ZM8.09393 12.7602L8.11016 12.6829C7.49747 12.5543 6.94155 12.4375 6.53081 12.4198L6.52742 12.4987L6.52402 12.5777C6.91868 12.5946 7.45954 12.7079 8.07771 12.8375L8.09393 12.7602ZM11.719 13.088L11.7048 13.0103C10.6206 13.2083 9.26 12.9241 8.11016 12.6829L8.09393 12.7602L8.07771 12.8375C9.21818 13.0768 10.6122 13.3705 11.7332 13.1658L11.719 13.088ZM15.0373 10.7038L14.9639 10.6747C14.5953 11.6043 13.3773 12.7049 11.7048 13.0103L11.719 13.088L11.7332 13.1658C13.4514 12.852 14.7193 11.7203 15.1108 10.7329L15.0373 10.7038ZM12.7712 2.89302L12.714 2.94751C13.3978 3.66573 14.2835 4.7879 14.8361 6.13661C15.3882 7.48428 15.6064 9.05393 14.9639 10.6747L15.0373 10.7038L15.1108 10.7329C15.7724 9.06411 15.5453 7.45081 14.9823 6.0767C14.4197 4.70362 13.5203 3.56518 12.8285 2.83854L12.7712 2.89302ZM12.8889 2.34708L12.8371 2.28738C12.7696 2.34589 12.6831 2.41872 12.643 2.52353C12.6004 2.63514 12.615 2.76545 12.7013 2.92975L12.7712 2.89302L12.8412 2.85629C12.7673 2.71553 12.7699 2.63431 12.7907 2.57993C12.814 2.51876 12.8664 2.47115 12.9406 2.40677L12.8889 2.34708ZM12.9917 2.25093L12.9336 2.19744C12.9055 2.22796 12.8731 2.25612 12.8371 2.28738L12.8889 2.34708L12.9406 2.40677C12.9755 2.37655 13.0147 2.34262 13.0499 2.30443L12.9917 2.25093ZM13.0619 2.17474L13.0038 2.12117C12.9813 2.14557 12.9579 2.17097 12.9336 2.19744L12.9917 2.25093L13.0499 2.30443C13.0741 2.27806 13.0975 2.25274 13.12 2.22832L13.0619 2.17474ZM13.5641 1.34362L13.4851 1.34022C13.4737 1.60702 13.3608 1.7342 13.0038 2.12117L13.0619 2.17474L13.12 2.22832C13.4675 1.85167 13.6286 1.68184 13.643 1.34701L13.5641 1.34362ZM11.1747 0.619273L11.1875 0.697232C11.681 0.615696 12.255 0.628419 12.7087 0.742999C12.9357 0.800325 13.1274 0.881887 13.2637 0.98559C13.3988 1.08846 13.4752 1.20943 13.4853 1.34931L13.5641 1.34362L13.6429 1.33792C13.6286 1.14079 13.5198 0.981933 13.3594 0.859845C13.2001 0.738588 12.986 0.650046 12.7474 0.589778C12.2698 0.469167 11.6736 0.456739 11.1618 0.541314L11.1747 0.619273ZM10.0693 1.10217L10.1085 1.17079C10.4594 0.970498 10.8393 0.754788 11.1875 0.697232L11.1747 0.619273L11.1618 0.541314C10.7798 0.604436 10.3736 0.837473 10.0301 1.03355L10.0693 1.10217ZM9.52478 1.38391L9.55315 1.45766C9.71633 1.39489 9.90854 1.28493 10.1085 1.17079L10.0693 1.10217L10.0301 1.03355C9.82637 1.14987 9.64589 1.25266 9.49641 1.31016L9.52478 1.38391ZM8.77222 1.47047L8.76817 1.54938C8.98304 1.56043 9.24876 1.57474 9.55315 1.45766L9.52478 1.38391L9.49641 1.31016C9.22628 1.41406 8.99085 1.40259 8.77628 1.39156L8.77222 1.47047ZM8.45098 1.47465L8.46372 1.55263C8.55011 1.53852 8.6481 1.54321 8.76817 1.54938L8.77222 1.47047L8.77628 1.39156C8.66069 1.38561 8.54461 1.37929 8.43824 1.39667L8.45098 1.47465ZM6.96025 2.43679L7.02813 2.47724C7.18873 2.2077 7.70467 1.67662 8.46372 1.55263L8.45098 1.47465L8.43824 1.39667C7.62369 1.52972 7.07146 2.09578 6.89237 2.39635L6.96025 2.43679ZM6.79195 4.41357L6.86466 4.38262C6.62209 3.81271 6.6849 3.06914 7.02861 2.47643L6.96025 2.43679L6.8919 2.39715C6.52611 3.02794 6.45503 3.82374 6.71925 4.44451L6.79195 4.41357ZM7.47122 7.30653L7.55021 7.30468C7.54555 7.10569 7.47407 6.61062 7.35513 6.05179C7.23593 5.49174 7.0671 4.85825 6.86466 4.38262L6.79195 4.41357L6.71925 4.44451C6.91577 4.90624 7.0821 5.52815 7.20056 6.08469C7.31927 6.64246 7.38793 7.1252 7.39222 7.30838L7.47122 7.30653ZM5.75222 10.1158L5.77589 10.1912C6.12003 10.0831 6.57633 9.86073 6.94076 9.41269C7.30616 8.96348 7.57338 8.29455 7.55021 7.30468L7.47122 7.30653L7.39222 7.30838C7.41465 8.2662 7.15657 8.89695 6.81817 9.31297C6.47881 9.73018 6.0528 9.93859 5.72854 10.0404L5.75222 10.1158ZM4.54848 9.99509L4.50833 10.0631C4.64393 10.1431 4.85318 10.208 5.07854 10.237C5.30456 10.266 5.55593 10.2603 5.77589 10.1912L5.75222 10.1158L5.72854 10.0404C5.53683 10.1006 5.30987 10.1074 5.09871 10.0802C4.88689 10.053 4.70011 9.99279 4.58862 9.92703L4.54848 9.99509ZM3.25038 7.78079L3.17143 7.7774C3.14324 8.43269 3.46071 9.44517 4.50833 10.0631L4.54848 9.99509L4.58862 9.92703C3.59794 9.34264 3.30329 8.38933 3.32932 7.78419L3.25038 7.78079ZM4.66497 3.73763L4.6078 3.68309C4.38706 3.91446 4.04835 4.48429 3.75579 5.21689C3.46219 5.95211 3.21082 6.86166 3.17143 7.7774L3.25038 7.78079L3.32932 7.78419C3.36773 6.89115 3.61343 5.99949 3.90255 5.2755C4.19272 4.5489 4.52241 4.00153 4.72214 3.79217L4.66497 3.73763ZM5.60094 1.90403L5.522 1.90064C5.5093 2.19578 5.40191 2.48198 5.23488 2.77652C5.06751 3.07166 4.84357 3.36969 4.60189 3.69004L4.66497 3.73763L4.72805 3.78522C4.96833 3.46672 5.19895 3.16026 5.37235 2.85447C5.5461 2.54808 5.66571 2.23691 5.67989 1.90743L5.60094 1.90403ZM10.6994 5.38156H10.6204C10.6204 5.61341 10.4279 5.85108 10.1667 5.85108V5.93009V6.00911C10.5289 6.00911 10.7784 5.68623 10.7784 5.38156H10.6994ZM10.1667 4.71789V4.79691C10.2776 4.79691 10.39 4.87276 10.4795 4.99564C10.5682 5.11744 10.6204 5.26744 10.6204 5.38156H10.6994H10.7784C10.7784 5.22743 10.7114 5.04559 10.6073 4.90262C10.504 4.76073 10.3501 4.63887 10.1667 4.63887V4.71789ZM9.63404 5.38156H9.71306C9.71306 5.26744 9.76525 5.11744 9.85394 4.99564C9.94342 4.87276 10.0559 4.79691 10.1667 4.79691V4.71789V4.63887C9.98336 4.63887 9.8295 4.76073 9.72619 4.90262C9.62208 5.04559 9.55503 5.22743 9.55503 5.38156H9.63404ZM10.1667 5.93009V5.85108C9.9056 5.85108 9.71306 5.61341 9.71306 5.38156H9.63404H9.55503C9.55503 5.68623 9.80453 6.00911 10.1667 6.00911V5.93009Z" fill="#EA9C00"/>
<path fill-rule="evenodd" clip-rule="evenodd" d="M6.16987 14.1616C6.15654 14.1514 6.1423 14.1418 6.12714 14.1331L4.52291 13.2069C4.27141 13.0617 3.95703 13.2432 3.95703 13.5336L3.95703 15.386C3.95703 15.6764 4.27141 15.8579 4.52291 15.7127L6.12714 14.7865C6.1423 14.7777 6.15654 14.7682 6.16987 14.758C6.1832 14.7682 6.19745 14.7777 6.2126 14.7865L7.81684 15.7127C8.06834 15.8579 8.38271 15.6764 8.38271 15.386V13.5336C8.38271 13.2432 8.06833 13.0617 7.81683 13.2069L6.2126 14.1331C6.19744 14.1418 6.1832 14.1514 6.16987 14.1616Z" fill="#EA9C00"/>
<path fill-rule="evenodd" clip-rule="evenodd" d="M4.04537 7.68721C4.29072 7.40286 4.64782 7.38106 4.99805 7.37939V7.37946C5.34007 7.38122 5.70576 7.40359 5.95053 7.68727C6.16268 7.93311 6.44182 8.43825 6.16265 9.01421C5.92593 9.5026 5.5051 9.74728 4.99791 9.77212V9.77161C4.49009 9.74152 4.06352 9.44944 3.83325 9.01416C3.62294 8.61661 3.69974 8.08778 4.04537 7.68721Z" fill="#EA9C00"/>
</g>
<defs>
<clipPath id="clip0_2426_4274">
<rect width="16" height="16" fill="white"/>
</clipPath>
</defs>
</svg>
