<svg width="22" height="26" viewBox="0 0 22 26" fill="none" xmlns="http://www.w3.org/2000/svg">
<rect width="22" height="26" fill="#B4B4B4"/>
<g id="&#236;&#177;&#132;&#237;&#140;&#133;">
<path d="M-3025 -7000C-3025 -7001.1 -3024.1 -7002 -3023 -7002H34176C34177.1 -7002 34178 -7001.1 34178 -7000V-6687C34178 -6685.9 34177.1 -6685 34176 -6685H-3023C-3024.1 -6685 -3025 -6685.9 -3025 -6687V-7000Z" fill="white"/>
<path d="M-3023 -7001H34176V-7003H-3023V-7001ZM34177 -7000V-6687H34179V-7000H34177ZM34176 -6686H-3023V-6684H34176V-6686ZM-3024 -6687V-7000H-3026V-6687H-3024ZM-3023 -6686C-3023.55 -6686 -3024 -6686.45 -3024 -6687H-3026C-3026 -6685.34 -3024.66 -6684 -3023 -6684V-6686ZM34177 -6687C34177 -6686.45 34176.6 -6686 34176 -6686V-6684C34177.7 -6684 34179 -6685.34 34179 -6687H34177ZM34176 -7001C34176.6 -7001 34177 -7000.55 34177 -7000H34179C34179 -7001.66 34177.7 -7003 34176 -7003V-7001ZM-3023 -7003C-3024.66 -7003 -3026 -7001.66 -3026 -7000H-3024C-3024 -7000.55 -3023.55 -7001 -3023 -7001V-7003Z" fill="black" fill-opacity="0.1"/>
</g>
<g id="2.0 &#236;&#177;&#132;&#237;&#140;&#133;" clip-path="url(#clip0_1762_9835)" filter="url(#filter0_d_1762_9835)">
<rect width="1440" height="3647" transform="translate(-1338 -856)" fill="white"/>
<g id="Frame 1000006997">
<g id="Frame 1000006995">
</g>
</g>
<g id="&#236;&#177;&#132;&#237;&#140;&#133;&#236;&#158;&#133;&#235;&#160;&#165;&#235;&#176;&#148;">
<path d="M-853.5 -16.5H41.5V27C41.5 35.5604 34.5604 42.5 26 42.5H-838C-846.56 42.5 -853.5 35.5604 -853.5 27V-16.5Z" fill="white"/>
<path d="M-853.5 -16.5H41.5V27C41.5 35.5604 34.5604 42.5 26 42.5H-838C-846.56 42.5 -853.5 35.5604 -853.5 27V-16.5Z" stroke="#F4EFEC"/>
<g id="Frame 1000007129">
<g id="PaperPlaneRight">
<path id="Vector" d="M21.8697 12.985C21.8705 13.2968 21.788 13.6032 21.6307 13.8724C21.4734 14.1416 21.247 14.3639 20.975 14.5163L2.60878 25.0174C2.34522 25.1668 2.04767 25.2459 1.74472 25.2471C1.46558 25.2456 1.19085 25.1773 0.943469 25.048C0.696085 24.9187 0.483223 24.7321 0.322651 24.5038C0.162079 24.2754 0.0584575 24.012 0.0204368 23.7355C-0.0175839 23.4589 0.0110993 23.1773 0.104092 22.9141L3.05722 14.1696C3.08608 14.0841 3.14067 14.0096 3.21351 13.9563C3.28635 13.9031 3.37387 13.8737 3.46409 13.8721H11.3697C11.4897 13.8723 11.6084 13.8479 11.7185 13.8004C11.8286 13.7528 11.9278 13.6831 12.0099 13.5957C12.0919 13.5082 12.1551 13.4047 12.1955 13.2918C12.2359 13.1788 12.2527 13.0588 12.2447 12.9391C12.2249 12.7141 12.1208 12.5049 11.9532 12.3534C11.7857 12.2019 11.5671 12.1193 11.3413 12.1221H3.46628C3.37475 12.1221 3.28552 12.0934 3.21115 12.04C3.13679 11.9866 3.08104 11.9113 3.05175 11.8246L0.0986233 3.08114C-0.0189173 2.74601 -0.0317096 2.38304 0.0619456 2.04047C0.155601 1.69789 0.35127 1.39192 0.622961 1.16319C0.894651 0.93447 1.2295 0.793824 1.58303 0.759938C1.93656 0.726053 2.29203 0.800532 2.60222 0.973483L20.9772 11.4615C21.2477 11.6135 21.4729 11.8347 21.6297 12.1024C21.7865 12.3702 21.8694 12.6748 21.8697 12.985Z" fill="#131115" fill-opacity="0.6"/>
</g>
</g>
</g>
</g>
<defs>
<filter id="filter0_d_1762_9835" x="-1354" y="-872" width="1472" height="3679" filterUnits="userSpaceOnUse" color-interpolation-filters="sRGB">
<feFlood flood-opacity="0" result="BackgroundImageFix"/>
<feColorMatrix in="SourceAlpha" type="matrix" values="0 0 0 0 0 0 0 0 0 0 0 0 0 0 0 0 0 0 127 0" result="hardAlpha"/>
<feOffset/>
<feGaussianBlur stdDeviation="8"/>
<feComposite in2="hardAlpha" operator="out"/>
<feColorMatrix type="matrix" values="0 0 0 0 0 0 0 0 0 0 0 0 0 0 0 0 0 0 0.04 0"/>
<feBlend mode="normal" in2="BackgroundImageFix" result="effect1_dropShadow_1762_9835"/>
<feBlend mode="normal" in="SourceGraphic" in2="effect1_dropShadow_1762_9835" result="shape"/>
</filter>
<clipPath id="clip0_1762_9835">
<rect width="1440" height="3647" fill="white" transform="translate(-1338 -856)"/>
</clipPath>
</defs>
</svg>
