<svg width="439" height="85" viewBox="0 0 439 85" fill="none" xmlns="http://www.w3.org/2000/svg">
<g filter="url(#filter0_d_1858_19581)">
<rect x="16" y="16" width="407" height="53" rx="26.5" fill="#D382D4"/>
<path d="M61.7539 34.7617V44.4121H60.084V34.7617H61.7539ZM49.4844 37.0996V35.7285H56.7266V40.1934H51.1543V42.1621C53.9141 42.1445 55.9268 42.0566 58.3262 41.6875L58.5371 43.041C55.9619 43.4629 53.8174 43.5332 50.8379 43.5332H49.5195V38.9102H55.0742V37.0996H49.4844ZM51.1367 47.5938C51.1367 45.7568 53.1582 44.7021 56.498 44.7109C59.8291 44.7021 61.8594 45.7568 61.8594 47.5938C61.8594 49.4131 59.8291 50.4678 56.498 50.459C53.1582 50.4678 51.1367 49.4131 51.1367 47.5938ZM52.7891 47.5938C52.7979 48.5869 54.1602 49.1494 56.498 49.1406C58.8271 49.1494 60.1895 48.5869 60.1895 47.5938C60.1895 46.5918 58.8271 46.0205 56.498 46.0293C54.1602 46.0205 52.7979 46.5918 52.7891 47.5938ZM76.9238 36.2734V38.1895C76.9238 40.4922 76.9238 42.6543 76.2383 45.9238L74.5859 45.7656C74.9199 44.3154 75.0957 43.0586 75.1836 41.8896L65.7266 42.3906L65.5156 41.0195L75.2627 40.6504C75.2979 39.8066 75.2979 38.998 75.3066 38.1895V37.6445H65.9551V36.2734H76.9238ZM64.25 48.3848V47.0137H78.6113V48.3848H64.25ZM98.5625 42.7773V44.1309H84.2012V42.7773H90.5469V41.0723H86.082V35.1133H87.7344V36.8184H95.0293V35.1133H96.6992V41.0723H92.1992V42.7773H98.5625ZM85.8008 46.873V45.5371H96.8047V50.4941H95.1172V46.873H85.8008ZM87.7344 39.7363H95.0293V38.0664H87.7344V39.7363ZM105.225 38.752C105.207 41.5381 106.833 44.3945 109.18 45.5371L108.143 46.873C106.429 45.9766 105.102 44.2188 104.407 42.1182C103.704 44.3506 102.324 46.2402 100.531 47.1719L99.4941 45.8184C101.911 44.6582 103.546 41.6348 103.555 38.752V36.0625H105.225V38.752ZM110.357 50.4941V34.7441H112.027V41.0195H114.559V42.4434H112.027V50.4941H110.357ZM124.49 35.4473C126.793 35.4473 128.41 36.7129 128.428 38.5938C128.41 40.1934 127.197 41.3623 125.369 41.6523V43.0586C126.758 42.9795 128.164 42.8477 129.465 42.6543L129.588 43.8848C126.283 44.4824 122.574 44.5439 119.867 44.5352L119.691 43.1816C120.869 43.1904 122.249 43.1816 123.699 43.1289V41.6699C121.818 41.4062 120.562 40.2197 120.57 38.5938C120.562 36.7129 122.179 35.4473 124.49 35.4473ZM121.924 50.1602V45.748H123.594V48.7891H132.664V50.1602H121.924ZM122.135 38.5938C122.117 39.71 123.102 40.4395 124.49 40.4395C125.888 40.4395 126.846 39.71 126.846 38.5938C126.846 37.4512 125.888 36.7305 124.49 36.7305C123.102 36.7305 122.117 37.4512 122.135 38.5938ZM130.432 46.8027V34.7617H132.102V39.9648H134.352V41.3711H132.102V46.8027H130.432ZM149.68 47.207V48.6133H135.266V47.207H139.203V44.4297H137.023V39.4199H146.27V37.2227H136.988V35.8516H147.922V40.7734H138.676V43.0586H148.291V44.4297H145.9V47.207H149.68ZM140.82 47.207H144.266V44.4297H140.82V47.207ZM153.723 36.2734L153.564 45.3262H151.824L151.666 36.2734H153.723ZM151.455 47.875C151.446 47.1895 152.018 46.627 152.703 46.627C153.38 46.627 153.942 47.1895 153.951 47.875C153.942 48.5605 153.38 49.1143 152.703 49.123C152.018 49.1143 151.446 48.5605 151.455 47.875ZM173.199 34.7617V44.4121H171.529V34.7617H173.199ZM160.93 37.0996V35.7285H168.172V40.1934H162.6V42.1621C165.359 42.1445 167.372 42.0566 169.771 41.6875L169.982 43.041C167.407 43.4629 165.263 43.5332 162.283 43.5332H160.965V38.9102H166.52V37.0996H160.93ZM162.582 47.5938C162.582 45.7568 164.604 44.7021 167.943 44.7109C171.274 44.7021 173.305 45.7568 173.305 47.5938C173.305 49.4131 171.274 50.4678 167.943 50.459C164.604 50.4678 162.582 49.4131 162.582 47.5938ZM164.234 47.5938C164.243 48.5869 165.605 49.1494 167.943 49.1406C170.272 49.1494 171.635 48.5869 171.635 47.5938C171.635 46.5918 170.272 46.0205 167.943 46.0293C165.605 46.0205 164.243 46.5918 164.234 47.5938ZM188.369 36.2734V38.1895C188.369 40.4922 188.369 42.6543 187.684 45.9238L186.031 45.7656C186.365 44.3154 186.541 43.0586 186.629 41.8896L177.172 42.3906L176.961 41.0195L186.708 40.6504C186.743 39.8066 186.743 38.998 186.752 38.1895V37.6445H177.4V36.2734H188.369ZM175.695 48.3848V47.0137H190.057V48.3848H175.695ZM205.648 41.9688V43.252H191.234V41.9688H205.648ZM192.939 45.5547V44.3594H203.873V47.8223H194.627V49.123H204.365V50.3008H192.957V46.7148H202.221V45.5547H192.939ZM193.045 36.3262V35.1484H203.838V38.5586H194.732V39.7539H204.102V40.9316H193.08V37.4512H202.168V36.3262H193.045ZM219.676 35.6758V37.0469H213.787V38.7695H219.236V40.0703H213.787V41.8984C216.934 41.8984 218.771 41.8369 220.906 41.4766L221.082 42.8125C218.806 43.1992 216.846 43.2432 213.4 43.2344H212.1V35.6758H219.676ZM213.91 50.3008V44.8691H224.264V50.3008H213.91ZM215.562 48.9473H222.629V46.1699H215.562V48.9473ZM222.594 44.1309V34.7617H224.264V44.1309H222.594ZM239.855 34.7617V46.6973H238.186V45.1855H235.021V44.0078H238.186V34.7617H239.855ZM226.689 41.9512C229.599 41.9248 233.527 41.8984 236.885 41.4766L236.99 42.6719C235.646 42.9004 234.23 43.041 232.842 43.1377V46.2051H231.172V43.2256C229.643 43.2871 228.175 43.2871 226.9 43.2871L226.689 41.9512ZM227.92 38.1367C227.911 36.4668 229.502 35.3594 231.84 35.3594C234.143 35.3594 235.742 36.4668 235.742 38.1367C235.742 39.8154 234.143 40.8789 231.84 40.8789C229.511 40.8789 227.911 39.8154 227.92 38.1367ZM228.869 50.1602V45.5371H230.521V48.8066H240.242V50.1602H228.869ZM229.502 38.1367C229.493 39.0684 230.442 39.6484 231.84 39.6484C233.185 39.6484 234.151 39.0684 234.16 38.1367C234.151 37.1963 233.185 36.5898 231.84 36.6074C230.442 36.5898 229.493 37.1963 229.502 38.1367ZM256.695 41.1953V42.5312H242.316V41.1953H256.695ZM244.039 45.0625V43.7793H254.867V47.5938H245.691V49H255.307V50.3184H244.057V46.3633H253.215V45.0625H244.039ZM244.197 40.0527V35.2012H254.832V36.5547H245.867V38.7168H254.99V40.0527H244.197ZM271.426 34.7441V50.4941H269.826V34.7441H271.426ZM258.049 41.5469C258.049 38.1367 259.385 36.001 261.441 36.0098C263.357 36.001 264.649 37.8203 264.843 40.7734H266.627V35.043H268.227V49.7207H266.627V42.127H264.852C264.702 45.2031 263.393 47.1104 261.441 47.1016C259.385 47.1104 258.049 44.9658 258.049 41.5469ZM259.596 41.5469C259.596 44.0518 260.308 45.5283 261.441 45.5195C262.602 45.5283 263.322 44.0518 263.322 41.5469C263.322 39.0332 262.602 37.5654 261.441 37.5742C260.308 37.5654 259.596 39.0332 259.596 41.5469ZM286.965 34.7441V50.4941H285.383V34.7441H286.965ZM273.377 45.9414C276.717 43.9551 278.316 41.3096 278.606 38.0664H274.115V36.6953H280.268C280.259 38.2334 280.048 39.7012 279.564 41.0723H282.061V35.1484H283.643V49.7207H282.061V42.4082H278.984C278.053 44.2363 276.55 45.8359 274.326 47.1367L273.377 45.9414ZM300.482 44.6406C303.893 44.6406 306.046 45.7217 306.055 47.5586C306.046 49.3867 303.893 50.4678 300.482 50.459C297.107 50.4678 294.945 49.3867 294.945 47.5586C294.945 45.7217 297.107 44.6406 300.482 44.6406ZM293.398 43.3398V41.9863H299.146V39.0332H300.781V41.9863H307.725V43.3398H293.398ZM295.068 36.8535V35.5176H305.932V36.8359C305.94 38.0928 305.94 39.3936 305.492 41.0195L303.857 40.8438C304.279 39.2354 304.279 38.0752 304.279 36.8535H295.068ZM296.615 47.5586C296.598 48.5781 298.101 49.167 300.482 49.1758C302.891 49.167 304.385 48.5781 304.402 47.5586C304.385 46.5215 302.891 45.915 300.482 45.9062C298.101 45.915 296.598 46.5215 296.615 47.5586ZM323.334 43.6387V45.0098H319.678V50.4941H317.99V45.0098H314.229V50.4941H312.506V45.0098H308.92V43.6387H323.334ZM310.484 38.8223C310.493 36.6953 312.761 35.3418 316.092 35.3418C319.423 35.3418 321.708 36.6953 321.699 38.8223C321.708 40.9229 319.423 42.25 316.092 42.2324C312.761 42.25 310.493 40.9229 310.484 38.8223ZM312.207 38.8223C312.198 40.1143 313.754 40.9141 316.092 40.9141C318.438 40.9141 319.985 40.1143 319.994 38.8223C319.985 37.4951 318.438 36.6865 316.092 36.6777C313.754 36.6865 312.198 37.4951 312.207 38.8223ZM332.281 37.3457V38.6992H324.459V37.3457H327.553V35.2012H329.205V37.3457H332.281ZM324.969 43.2695C324.96 41.1514 326.401 39.6484 328.379 39.6484C330.374 39.6484 331.798 41.1514 331.807 43.2695C331.798 45.4229 330.374 46.9346 328.379 46.9258C326.401 46.9346 324.96 45.4229 324.969 43.2695ZM326.445 43.2695C326.437 44.6055 327.245 45.502 328.379 45.502C329.513 45.502 330.33 44.6055 330.33 43.2695C330.33 41.96 329.513 41.0459 328.379 41.0371C327.245 41.0459 326.437 41.96 326.445 43.2695ZM333.002 49.7559V35.0957H334.584V41.3008H336.395V34.7441H337.977V50.4941H336.395V42.6719H334.584V49.7559H333.002ZM354.465 47.1543V48.543H340.051V47.1543H346.396V43.9199H341.703V35.8164H343.373V38.5234H351.107V35.8164H352.76V43.9199H348.049V47.1543H354.465ZM343.373 42.5664H351.107V39.877H343.373V42.5664ZM360.406 39.0508C360.406 41.5645 361.461 44.2451 363.57 45.5371L362.639 46.8203C361.162 45.9326 360.169 44.3594 359.624 42.54C359.053 44.5352 357.963 46.2402 356.434 47.1719L355.396 45.9238C357.62 44.5879 358.798 41.8018 358.789 39.1211V36.1855H360.406V39.0508ZM361.865 41.6699V40.2812H364.309V35.043H365.891V49.7207H364.309V41.6699H361.865ZM367.561 50.4941V34.7441H369.16V50.4941H367.561ZM385.578 47.1367V48.5254H371.164V47.1367H374.609V43.0234C373.317 42.3115 372.526 41.1865 372.535 39.7715C372.526 37.293 374.961 35.667 378.336 35.6582C381.72 35.667 384.154 37.293 384.154 39.7715C384.154 41.1602 383.398 42.2764 382.133 42.9883V47.1367H385.578ZM374.152 39.7715C374.152 41.459 375.866 42.5576 378.336 42.5664C380.788 42.5576 382.528 41.459 382.537 39.7715C382.528 38.0752 380.788 36.9941 378.336 36.9941C375.866 36.9941 374.152 38.0752 374.152 39.7715ZM376.262 47.1367H380.445V43.6387C379.804 43.7881 379.092 43.8672 378.336 43.8672C377.598 43.8672 376.895 43.7881 376.262 43.6387V47.1367ZM388.514 49.123C387.828 49.1143 387.257 48.5605 387.266 47.875C387.257 47.1895 387.828 46.627 388.514 46.627C389.19 46.627 389.753 47.1895 389.762 47.875C389.753 48.5605 389.19 49.1143 388.514 49.123Z" fill="white"/>
</g>
<defs>
<filter id="filter0_d_1858_19581" x="0" y="0" width="439" height="85" filterUnits="userSpaceOnUse" color-interpolation-filters="sRGB">
<feFlood flood-opacity="0" result="BackgroundImageFix"/>
<feColorMatrix in="SourceAlpha" type="matrix" values="0 0 0 0 0 0 0 0 0 0 0 0 0 0 0 0 0 0 127 0" result="hardAlpha"/>
<feOffset/>
<feGaussianBlur stdDeviation="8"/>
<feComposite in2="hardAlpha" operator="out"/>
<feColorMatrix type="matrix" values="0 0 0 0 0 0 0 0 0 0 0 0 0 0 0 0 0 0 0.04 0"/>
<feBlend mode="normal" in2="BackgroundImageFix" result="effect1_dropShadow_1858_19581"/>
<feBlend mode="normal" in="SourceGraphic" in2="effect1_dropShadow_1858_19581" result="shape"/>
</filter>
</defs>
</svg>
