<svg width="128" height="51" viewBox="0 0 128 51" fill="none" xmlns="http://www.w3.org/2000/svg">
<rect width="128" height="51" rx="25.5" fill="white"/>
<rect x="0.75" y="0.75" width="126.5" height="49.5" rx="24.75" stroke="#131115" stroke-opacity="0.2" stroke-width="1.5"/>
<path d="M48.6719 18.2188V32.4688H46.6562V18.2188H48.6719ZM37.1875 24.2812C37.1797 21.1797 38.7656 19.2188 40.9531 19.2188C43.0938 19.2188 44.6875 21.1797 44.6875 24.2812C44.6875 27.4062 43.0938 29.3594 40.9531 29.3594C38.7656 29.3594 37.1797 27.4062 37.1875 24.2812ZM39.1094 24.2812C39.1016 26.3984 39.8438 27.5547 40.9531 27.5469C42.0312 27.5547 42.7578 26.3984 42.7656 24.2812C42.7578 22.1719 42.0312 21.0156 40.9531 21.0156C39.8438 21.0156 39.1016 22.1719 39.1094 24.2812ZM62.5781 18.2344V28.6094H60.5938V23.5156H58.2656V21.9062H60.5938V18.2344H62.5781ZM50.5156 25.4062C52.8672 24.6719 53.9297 22.8203 53.9375 21V20.7812H51.0781V19.1875H58.7969V20.7812H55.9688V21.0156C55.9609 22.6641 56.9766 24.4219 59.2344 25.1562L58.25 26.7344C56.6797 26.2188 55.5938 25.1875 54.9766 23.9141C54.3438 25.3281 53.2109 26.4766 51.5312 27.0312L50.5156 25.4062ZM53.1406 32.1875V27.7031H55.1406V30.5938H62.9219V32.1875H53.1406ZM70.9062 18.9375C73.9062 18.9453 76.2578 20.5703 76.2656 23.0312C76.2578 25.5156 73.9062 27.1328 70.9062 27.125C67.8984 27.1328 65.5625 25.5156 65.5625 23.0312C65.5625 20.5703 67.8984 18.9453 70.9062 18.9375ZM64.4219 30.7031V29.0938H77.4375V30.7031H64.4219ZM67.5 23.0312C67.4922 24.5781 68.9297 25.5 70.9062 25.5C72.8672 25.5 74.2891 24.5781 74.2969 23.0312C74.2891 21.5078 72.8672 20.5469 70.9062 20.5625C68.9297 20.5469 67.4922 21.5078 67.5 23.0312ZM91.2656 29.2188V30.8594H78.25V29.2188H83.7344V27.0781H79.75V22.2969H87.7969V20.7344H79.7344V19.1406H89.7656V23.8594H81.75V25.4531H90.0938V27.0781H85.7188V29.2188H91.2656Z" fill="#131115"/>
</svg>
