<svg width="77" height="28" viewBox="0 0 77 28" fill="none" xmlns="http://www.w3.org/2000/svg">
<rect width="77" height="28" rx="4" fill="#FD8B3E"/>
<path d="M26.418 13.2539V14.4609H22.293V15.252C24.1445 15.3867 25.2461 16.0547 25.2578 17.1562C25.2461 18.3926 23.8457 19.084 21.543 19.0781C19.2051 19.084 17.8047 18.3926 17.8047 17.1562C17.8047 16.0488 18.9121 15.3809 20.8047 15.2461V14.4609H16.6914V13.2539H26.418ZM17.125 11.6836C19.0996 11.5078 20.1895 10.7812 20.459 10.043H17.582V8.87109H25.5391V10.043H22.6387C22.8965 10.7871 23.9805 11.5078 26.0078 11.6836L25.4805 12.8555C23.4648 12.6621 22.1113 11.9062 21.543 10.8691C20.9805 11.9004 19.6387 12.668 17.6172 12.8555L17.125 11.6836ZM19.3281 17.1562C19.3223 17.6719 20.0664 17.9531 21.543 17.9531C22.9902 17.9531 23.752 17.6719 23.7578 17.1562C23.752 16.6172 22.9902 16.3594 21.543 16.3477C20.0664 16.3594 19.3223 16.6172 19.3281 17.1562ZM36.7891 13.6992V14.9062H27.0625V13.6992H31.1641V12.7969H28.3047V8.67188H29.7812V9.64453H34.0586V8.67188H35.5469V12.7969H32.6641V13.6992H36.7891ZM28.1406 16.8164V15.6328H35.6055V19.0781H34.1172V16.8164H28.1406ZM29.7812 11.625H34.0586V10.7461H29.7812V11.625ZM48.7305 8.42578V11.4727H50.0898V12.7031H48.7305V15.668H47.2305V8.42578H48.7305ZM40.082 14.2969C40.8613 14.2969 41.7461 14.2969 42.6719 14.2734V13.6758C41.5117 13.5117 40.791 12.9434 40.7969 12.1289C40.791 11.1387 41.8281 10.5293 43.4102 10.5352C44.9805 10.5293 46.0176 11.1387 46.0234 12.1289C46.0176 12.9434 45.3027 13.5059 44.1602 13.6699V14.2207C45.0391 14.1738 45.918 14.1094 46.7383 14.0039L46.8438 15.0352C44.5879 15.4336 42.1152 15.457 40.2344 15.457L40.082 14.2969ZM40.3633 10.2891V9.19922H42.6719V8.33203H44.1602V9.19922H46.4688V10.2891H40.3633ZM41.4414 17.25V16.1016H48.7305V19.0781H47.2305V17.25H41.4414ZM42.2266 12.1289C42.2207 12.5156 42.6484 12.7441 43.4102 12.7383C44.1602 12.7441 44.5879 12.5156 44.5938 12.1289C44.5879 11.7129 44.1602 11.5312 43.4102 11.5312C42.6484 11.5312 42.2207 11.7129 42.2266 12.1289ZM59.5 8.42578V16.0898H58V8.42578H59.5ZM50.7344 11.7891C50.7344 10.2246 52.0117 9.09961 53.6523 9.10547C55.2871 9.09961 56.5645 10.2246 56.5703 11.7891C56.5645 13.377 55.2871 14.4961 53.6523 14.4961C52.0117 14.4961 50.7344 13.377 50.7344 11.7891ZM52.1992 11.7891C52.1875 12.6797 52.8145 13.1953 53.6523 13.1953C54.4609 13.1953 55.0879 12.6797 55.0938 11.7891C55.0879 10.9219 54.4609 10.4004 53.6523 10.4062C52.8145 10.4004 52.1875 10.9219 52.1992 11.7891ZM52.3516 18.8906V15.3164H53.8633V17.6953H59.7812V18.8906H52.3516Z" fill="white"/>
</svg>
