<svg width="207" height="51" viewBox="0 0 207 51" fill="none" xmlns="http://www.w3.org/2000/svg">
<rect width="207" height="51" rx="25.5" fill="#131115" fill-opacity="0.8"/>
<path d="M43.1875 27.0781C46.2969 27.0781 48.25 28.0625 48.2656 29.7656C48.25 31.4453 46.2969 32.4453 43.1875 32.4375C40.1016 32.4453 38.1172 31.4453 38.125 29.7656C38.1172 28.0625 40.1016 27.0781 43.1875 27.0781ZM36.8125 26.1719V24.5625H41.6562V22.0781H43.625V24.5625H49.7188V26.1719H36.8125ZM38.2656 20.4219V18.8594H48.1875V20.0156C48.1953 21.1484 48.1953 22.3672 47.7812 23.8281L45.8281 23.6406C46.1484 22.3516 46.1875 21.3906 46.2031 20.4219H38.2656ZM40.1094 29.7656C40.1016 30.5312 41.2266 30.9219 43.1875 30.9219C45.1484 30.9219 46.2812 30.5312 46.2812 29.7656C46.2812 28.9766 45.1484 28.5547 43.1875 28.5625C41.2266 28.5547 40.1016 28.9766 40.1094 29.7656ZM63.6094 26.125V27.7344H60.5625V32.4375H58.5312V27.7344H55.625V32.4375H53.5781V27.7344H50.5938V26.125H63.6094ZM51.9062 21.9062C51.8984 19.9453 54.0078 18.6953 57.0625 18.6875C60.1172 18.6953 62.25 19.9453 62.25 21.9062C62.25 23.8203 60.1172 25.0391 57.0625 25.0312C54.0078 25.0391 51.8984 23.8203 51.9062 21.9062ZM53.9531 21.9062C53.9453 22.9062 55.1562 23.4609 57.0625 23.4688C58.9844 23.4609 60.1875 22.9062 60.1875 21.9062C60.1875 20.8594 58.9844 20.2891 57.0625 20.2812C55.1562 20.2891 53.9453 20.8594 53.9531 21.9062ZM75.7188 18.1875V21.2812H77.6406V22.875H75.7188V25.8906H73.7188V18.1875H75.7188ZM64.4375 20.7969V19.2812H67.6719V18.125H69.6562V19.2812H72.875V20.7969H64.4375ZM65.125 23.4688C65.125 22.0469 66.5391 21.1484 68.6562 21.1406C70.7891 21.1484 72.1562 22.0469 72.1562 23.4688C72.1562 24.9219 70.7891 25.7891 68.6562 25.7969C66.5391 25.7891 65.125 24.9219 65.125 23.4688ZM66.2812 27.9062V26.4688H75.7188V30.0625H68.2656V30.875H76.125V32.3438H66.3125V28.7031H73.7344V27.9062H66.2812ZM67.0781 23.4688C67.0703 24.0781 67.6719 24.3672 68.6562 24.375C69.6484 24.3672 70.2656 24.0781 70.2656 23.4688C70.2656 22.8672 69.6484 22.5391 68.6562 22.5469C67.6719 22.5391 67.0703 22.8672 67.0781 23.4688ZM89.4844 19.6875H91.8438V27.0312C91.8438 29.5078 89.9609 31.1641 87.1562 31.1562C84.3438 31.1641 82.4844 29.5078 82.4844 27.0312V19.6875H84.8281V26.8438C84.8359 28.1484 85.7578 29.0859 87.1562 29.0938C88.5703 29.0859 89.4922 28.1484 89.4844 26.8438V19.6875ZM93.75 31V19.6875H98.1875C100.758 19.6875 102.234 21.1328 102.234 23.375C102.234 24.9219 101.523 26.0469 100.234 26.6016L102.641 31H100.047L97.8828 26.9844H96.0938V31H93.75ZM96.0938 25.0781H97.75C99.1406 25.0781 99.8203 24.5078 99.8125 23.375C99.8203 22.2344 99.1406 21.6172 97.75 21.6094H96.0938V25.0781ZM103.859 31V19.6875H106.203V29.0625H111.078V31H103.859ZM128.719 25.2656V26.875H115.75V25.2656H121.219V24.0625H117.406V18.5625H119.375V19.8594H125.078V18.5625H127.062V24.0625H123.219V25.2656H128.719ZM117.188 29.4219V27.8438H127.141V32.4375H125.156V29.4219H117.188ZM119.375 22.5H125.078V21.3281H119.375V22.5ZM134.812 21.4375C134.805 23.9844 135.891 26.5547 138.172 27.6562L136.969 29.25C135.445 28.4922 134.414 27.0859 133.828 25.375C133.203 27.2109 132.109 28.7188 130.5 29.5156L129.266 27.9062C131.68 26.7969 132.812 24.0781 132.812 21.4375V19.3125H134.812V21.4375ZM138.797 32.4375V18.2188H140.797V23.7031H142.891V25.3906H140.797V32.4375H138.797ZM154.625 18.2188V23.7812H156.719V25.4219H154.625V32.4375H152.656V18.2188H154.625ZM143.328 21.9375V20.3438H146.547V18.4375H148.547V20.3438H151.688V21.9375H143.328ZM143.906 26.125C143.898 24.1406 145.445 22.7266 147.547 22.7344C149.617 22.7266 151.172 24.1406 151.172 26.125C151.172 28.1094 149.617 29.5078 147.547 29.5156C145.445 29.5078 143.898 28.1094 143.906 26.125ZM145.812 26.125C145.812 27.2266 146.539 27.8828 147.547 27.875C148.539 27.8828 149.266 27.2266 149.266 26.125C149.266 25.0312 148.539 24.3594 147.547 24.3438C146.539 24.3594 145.812 25.0312 145.812 26.125ZM169.188 18.2188V32.4375H167.172V18.2188H169.188ZM157.281 28.4062C160.953 26.6719 162.57 24.4219 162.891 21.2656H158.047V19.7031H164.922C164.914 24.0156 163.406 27.6016 158.328 30L157.281 28.4062Z" fill="white"/>
</svg>
