<svg width="128" height="51" viewBox="0 0 128 51" fill="none" xmlns="http://www.w3.org/2000/svg">
<rect width="128" height="51" rx="25.5" fill="#131115" fill-opacity="0.8"/>
<path d="M47.9844 18.2188V23.5H50.0781V25.125H47.9844V32.4688H45.9844V18.2188H47.9844ZM37.3281 29.0156V19.5312H44V21.1406H39.3125V27.375C41.375 27.3594 43.0781 27.25 44.9688 26.9219L45.1875 28.5938C42.9766 28.9688 41.0391 29.0234 38.5312 29.0156H37.3281ZM57.0781 18.4844C60.2422 18.4766 62.2422 19.5312 62.25 21.2656C62.2422 22.9922 60.2422 24.0234 57.0781 24.0156C53.9297 24.0234 51.8906 22.9922 51.8906 21.2656C51.8906 19.5312 53.9297 18.4766 57.0781 18.4844ZM50.5938 26.4375V24.8438H63.5625V26.4375H50.5938ZM52.0938 32.2812V27.4375H62.0156V32.2812H52.0938ZM53.9688 21.2656C53.9531 22.0625 55.0859 22.4688 57.0781 22.4688C59.0391 22.4688 60.1875 22.0625 60.1875 21.2656C60.1875 20.4453 59.0391 20.0312 57.0781 20.0312C55.0859 20.0312 53.9531 20.4453 53.9688 21.2656ZM54.0625 30.6875H60.0625V29.0156H54.0625V30.6875ZM70.9062 18.9375C73.9062 18.9453 76.2578 20.5703 76.2656 23.0312C76.2578 25.5156 73.9062 27.1328 70.9062 27.125C67.8984 27.1328 65.5625 25.5156 65.5625 23.0312C65.5625 20.5703 67.8984 18.9453 70.9062 18.9375ZM64.4219 30.7031V29.0938H77.4375V30.7031H64.4219ZM67.5 23.0312C67.4922 24.5781 68.9297 25.5 70.9062 25.5C72.8672 25.5 74.2891 24.5781 74.2969 23.0312C74.2891 21.5078 72.8672 20.5469 70.9062 20.5625C68.9297 20.5469 67.4922 21.5078 67.5 23.0312ZM91.2656 29.2188V30.8594H78.25V29.2188H83.7344V27.0781H79.75V22.2969H87.7969V20.7344H79.7344V19.1406H89.7656V23.8594H81.75V25.4531H90.0938V27.0781H85.7188V29.2188H91.2656Z" fill="white"/>
</svg>
