<svg width="100" height="51" viewBox="0 0 100 51" fill="none" xmlns="http://www.w3.org/2000/svg">
<rect width="100" height="51" rx="25.5" fill="white"/>
<rect x="0.75" y="0.75" width="98.5" height="49.5" rx="24.75" stroke="#131115" stroke-opacity="0.2" stroke-width="1.5"/>
<path d="M45.1406 19.6406V21.1875H42.3281C42.375 22.3047 43.3828 23.3281 45.4844 23.7188L44.7031 25.25C43.0938 24.9375 41.9844 24.2266 41.3516 23.2734C40.7266 24.3203 39.5938 25.1172 37.9219 25.4531L37.1094 23.9062C39.2578 23.5 40.2578 22.3828 40.3125 21.1875H37.4844V19.6406H40.3281V18.25H42.3281V19.6406H45.1406ZM36.625 26.0625C39.25 26.0625 42.75 26.0391 45.75 25.6562L45.875 27.0938C44.7031 27.2969 43.5 27.4297 42.3125 27.5156V32H40.3281V27.625C39.0938 27.6719 37.9141 27.6719 36.875 27.6719L36.625 26.0625ZM46.6094 32.4375V18.2344H48.5781V32.4375H46.6094ZM63.4375 29.1406V30.7344H50.4219V29.1406H55.8594V25.9219H57.8438V29.1406H63.4375ZM50.7344 24.7188C53.9531 24.2188 55.7656 22.0547 55.7812 20.0469V19.0312H57.9062V20.0469C57.8984 22.0781 59.7344 24.2188 62.9844 24.7188L62.1406 26.375C59.6406 25.9219 57.7812 24.5859 56.8438 22.8125C55.9141 24.5781 54.0625 25.9297 51.5781 26.375L50.7344 24.7188Z" fill="#131115"/>
</svg>
