<svg width="128" height="51" viewBox="0 0 128 51" fill="none" xmlns="http://www.w3.org/2000/svg">
<rect width="128" height="51" rx="25.5" fill="#131115" fill-opacity="0.8"/>
<path d="M42.2969 21.4375C42.2891 24.0469 43.4766 26.6641 45.8906 27.6875L44.7188 29.2812C43.0938 28.5469 41.9688 27.125 41.3203 25.3672C40.6797 27.2891 39.5156 28.8359 37.7812 29.625L36.5781 27.9688C39.0625 26.9219 40.2734 24.1953 40.2812 21.4375V19.3125H42.2969V21.4375ZM46.6562 32.4688V18.2188H48.6719V32.4688H46.6562ZM58.6719 19.0469V20.6406H55.8438C55.8516 22.3047 56.8516 24.0156 59.1562 24.75L58.1406 26.2969C56.5625 25.7812 55.4766 24.7656 54.8594 23.5C54.2266 24.8828 53.0859 25.9922 51.4375 26.5312L50.375 25C52.7266 24.2422 53.8047 22.4141 53.8281 20.6406H50.9219V19.0469H58.6719ZM52.2969 28.9844V27.4062H61.875V32.4375H59.875V28.9844H52.2969ZM59.875 26.7969V18.2188H61.875V21.6719H63.7969V23.3281H61.875V26.7969H59.875ZM75.6406 18.2188V23.7812H77.7344V25.4219H75.6406V32.4375H73.6719V18.2188H75.6406ZM64.3438 21.9375V20.3438H67.5625V18.4375H69.5625V20.3438H72.7031V21.9375H64.3438ZM64.9219 26.125C64.9141 24.1406 66.4609 22.7266 68.5625 22.7344C70.6328 22.7266 72.1875 24.1406 72.1875 26.125C72.1875 28.1094 70.6328 29.5078 68.5625 29.5156C66.4609 29.5078 64.9141 28.1094 64.9219 26.125ZM66.8281 26.125C66.8281 27.2266 67.5547 27.8828 68.5625 27.875C69.5547 27.8828 70.2812 27.2266 70.2812 26.125C70.2812 25.0312 69.5547 24.3594 68.5625 24.3438C67.5547 24.3594 66.8281 25.0312 66.8281 26.125ZM90.2031 18.2188V32.4375H88.1875V18.2188H90.2031ZM78.2969 28.4062C81.9688 26.6719 83.5859 24.4219 83.9062 21.2656H79.0625V19.7031H85.9375C85.9297 24.0156 84.4219 27.6016 79.3438 30L78.2969 28.4062Z" fill="white"/>
</svg>
