<svg width="248" height="70" viewBox="0 0 248 70" fill="none" xmlns="http://www.w3.org/2000/svg">
<path d="M10.4492 15.5664V17.5195H0.566406V15.5664H4.39453V13.8672H6.875V15.5664H10.4492ZM1.44531 21.2695C1.42578 19.3555 3.1543 18.0273 5.60547 18.0273C8.04688 18.0273 9.80469 19.3555 9.82422 21.2695C9.80469 23.1934 8.04688 24.4824 5.60547 24.4922C3.1543 24.4824 1.42578 23.1934 1.44531 21.2695ZM3.51562 31.6016V25.2734H6.01562V26.582H13.0469V25.2734H15.5078V31.6016H3.51562ZM3.76953 21.2695C3.75977 22.1582 4.48242 22.6855 5.60547 22.6758C6.71875 22.6855 7.5 22.1582 7.5 21.2695C7.5 20.3809 6.71875 19.8926 5.60547 19.8828C4.48242 19.8926 3.75977 20.3809 3.76953 21.2695ZM6.01562 29.6875H13.0469V28.4375H6.01562V29.6875ZM10.6055 23.3203V21.3281H13.0273V19.8242H10.6445V17.8125H13.0273V14.0234H15.5078V24.6094H13.0273V23.3203H10.6055ZM22.7734 14.7852C25.0391 14.7656 26.8457 16.0645 27.334 17.9688H30.3125V14.0234H32.793V23.5742H30.3125V19.9609H27.3438C26.8848 21.9141 25.0586 23.2422 22.7734 23.2422C20.0391 23.2422 18.0273 21.4648 18.0469 18.9844C18.0273 16.5527 20.0391 14.7656 22.7734 14.7852ZM20.4102 18.9844C20.4004 20.3125 21.377 21.1523 22.7734 21.1523C24.1211 21.1523 25.0879 20.3125 25.0977 18.9844C25.0879 17.6562 24.1211 16.8457 22.7734 16.8555C21.377 16.8457 20.4004 17.6562 20.4102 18.9844ZM20.9375 31.6016V24.3555H23.3984V26.0742H30.3125V24.3555H32.793V31.6016H20.9375ZM23.3984 29.5898H30.3125V27.9883H23.3984V29.5898ZM43.2031 14.2773C47.2949 14.2773 49.6582 15.3516 49.668 17.3047C49.6582 19.2871 47.2949 20.3516 43.2031 20.3516C39.1016 20.3516 36.7188 19.2871 36.7188 17.3047C36.7188 15.3516 39.1016 14.2773 43.2031 14.2773ZM35.0977 23.1641V21.1914H51.3086V23.1641H35.0977ZM36.9727 26.0156V24.1992H49.3359V28.7305H39.4336V29.8047H49.8047V31.6797H36.9922V26.9922H46.875V26.0156H36.9727ZM39.3359 17.3047C39.3262 18.1738 40.5957 18.5156 43.2031 18.5156C45.8301 18.5156 47.0898 18.1738 47.0898 17.3047C47.0898 16.5137 45.8301 16.0938 43.2031 16.0938C40.5957 16.0938 39.3262 16.5137 39.3359 17.3047ZM62.793 14.7656C65.5078 14.7461 67.4805 16.2988 67.4805 18.5352C67.4805 20.752 65.5078 22.3242 62.793 22.3047C60.0879 22.3242 58.1152 20.752 58.125 18.5352C58.1152 16.2988 60.0879 14.7461 62.793 14.7656ZM57.0312 23.3984C60.1855 23.3887 64.6484 23.3301 68.4375 22.7539L68.5938 24.5898C67.1289 24.8828 65.625 25.0684 64.1406 25.1855V31.2695H61.6602V25.332C60.0977 25.4004 58.623 25.4102 57.3438 25.4297L57.0312 23.3984ZM60.5273 18.5352C60.5176 19.6484 61.4648 20.293 62.793 20.2734C64.1602 20.293 65.1172 19.6484 65.1172 18.5352C65.1172 17.4023 64.1602 16.748 62.793 16.7578C61.4648 16.748 60.5176 17.4023 60.5273 18.5352ZM69.5117 31.7969V14.043H71.9727V31.7969H69.5117ZM88.3789 14.043V19.4922H90.7812V21.5234H88.3789V27.3047H85.8789V14.043H88.3789ZM74.2773 17.8711V15.8984H78.3203V14.0039H80.8008V15.8984H84.8242V17.8711H74.2773ZM75.1367 21.9336C75.1367 19.873 76.9629 18.4961 79.5508 18.4961C82.1289 18.4961 83.9258 19.873 83.9258 21.9336C83.9258 23.9844 82.1289 25.332 79.5508 25.332C76.9629 25.332 75.1367 23.9844 75.1367 21.9336ZM76.8555 31.4844V26.2891H79.3359V29.4922H89.0234V31.4844H76.8555ZM77.5781 21.9336C77.5684 22.9102 78.3594 23.4375 79.5508 23.4375C80.752 23.4375 81.5625 22.9102 81.5625 21.9336C81.5625 20.9473 80.752 20.4004 79.5508 20.3906C78.3594 20.4004 77.5684 20.9473 77.5781 21.9336ZM16.7773 47.9648V49.9961H9.82422V55.8164H7.36328V49.9961H0.507812V47.9648H16.7773ZM2.14844 42.6523C2.13867 40.1816 4.77539 38.6191 8.59375 38.6094C12.4121 38.6191 15.0781 40.1816 15.0781 42.6523C15.0781 45.0645 12.4121 46.6172 8.59375 46.6172C4.77539 46.6172 2.13867 45.0645 2.14844 42.6523ZM4.70703 42.6523C4.69727 43.9219 6.21094 44.6348 8.59375 44.6445C10.9961 44.6348 12.5 43.9219 12.5 42.6523C12.5 41.334 10.9961 40.6113 8.59375 40.6016C6.21094 40.6113 4.69727 41.334 4.70703 42.6523ZM32.7148 38.0234V55.8359H30.2344V38.0234H32.7148ZM18.75 41.5195V39.5078H27.207V46.3633H21.3477V49.625C24.0625 49.6055 26.3574 49.4688 28.9648 49.0391L29.1797 51.0508C26.2598 51.5684 23.6133 51.6758 20.3711 51.6758H18.7695V44.3906H24.668V41.5195H18.75ZM44.6875 39.0391V41.0312H38.5742V42.418H44.1602V44.332H38.5742V45.7969C41.709 45.7871 43.6914 45.7383 45.9375 45.3672L46.1914 47.3008C43.6621 47.7402 41.3965 47.7793 37.5977 47.7695H36.0742V39.0391H44.6875ZM38.0664 55.6016V49.3125H49.9805V55.6016H38.0664ZM40.5273 53.6094H47.5391V51.2461H40.5273V53.6094ZM47.4805 48.5898V38.043H49.9805V48.5898H47.4805ZM58.1445 39.2148C60.9668 39.2051 63.0566 41.0215 63.0664 43.5703C63.0566 46.1289 60.9668 47.9355 58.1445 47.9453C55.3418 47.9355 53.1934 46.1289 53.2031 43.5703C53.1934 41.0215 55.3418 39.2051 58.1445 39.2148ZM52.4609 50.1719C55.6348 50.1816 60.0293 50.1426 63.8281 49.6055L64.0234 51.4023C60.0781 52.1738 55.8594 52.2031 52.7539 52.2031L52.4609 50.1719ZM55.6836 43.5703C55.6738 44.9766 56.7383 45.7871 58.1445 45.7773C59.5605 45.7871 60.6348 44.9766 60.6445 43.5703C60.6348 42.1836 59.5605 41.3633 58.1445 41.3633C56.7383 41.3633 55.6738 42.1836 55.6836 43.5703ZM64.8438 55.8359V38.0234H67.3242V55.8359H64.8438ZM83.8672 39.0391V41.0312H77.7539V42.418H83.3398V44.332H77.7539V45.7969C80.8887 45.7871 82.8711 45.7383 85.1172 45.3672L85.3711 47.3008C82.8418 47.7402 80.5762 47.7793 76.7773 47.7695H75.2539V39.0391H83.8672ZM77.2461 55.6016V49.3125H89.1602V55.6016H77.2461ZM79.707 53.6094H86.7188V51.2461H79.707V53.6094ZM86.6602 48.5898V38.043H89.1602V48.5898H86.6602ZM106.621 38.043V51.4609H104.121V50.0547H100.723V48.3555H104.121V38.043H106.621ZM91.5039 45.9141C94.7559 45.8945 99.1504 45.8457 102.91 45.3867L103.047 47.1641C101.641 47.3984 100.186 47.5645 98.75 47.6719V51.0508H96.25V53.4922H107.012V55.4844H93.7695V50.1719H96.25V47.8184C94.6582 47.877 93.1445 47.8867 91.7969 47.8867L91.5039 45.9141ZM92.8125 41.832C92.8125 39.9375 94.6387 38.6387 97.2852 38.6484C99.8633 38.6387 101.709 39.9375 101.719 41.832C101.709 43.7363 99.8633 44.9668 97.2852 44.957C94.6387 44.9668 92.8125 43.7363 92.8125 41.832ZM95.1758 41.832C95.166 42.6914 96.0156 43.1699 97.2852 43.1602C98.4766 43.1699 99.3359 42.6914 99.3555 41.832C99.3359 40.9531 98.4766 40.4648 97.2852 40.4648C96.0156 40.4648 95.166 40.9531 95.1758 41.832ZM120.176 40.4453C120.166 42.8184 121.387 45.0156 124.238 45.8945L122.93 47.8477C121.016 47.1836 119.717 45.9629 118.965 44.3613C118.184 46.2168 116.748 47.6719 114.609 48.3945L113.301 46.4023C116.338 45.4258 117.646 43.043 117.656 40.5625V38.9414H120.176V40.4453ZM116.25 52.3594C116.25 50.1719 118.574 48.8926 122.363 48.9023C126.162 48.8926 128.486 50.1719 128.496 52.3594C128.486 54.5566 126.162 55.8066 122.363 55.7969C118.574 55.8066 116.25 54.5566 116.25 52.3594ZM118.73 52.3594C118.73 53.3457 120.01 53.8633 122.363 53.8633C124.727 53.8633 126.006 53.3457 126.016 52.3594C126.006 51.3438 124.727 50.8359 122.363 50.8359C120.01 50.8359 118.73 51.3438 118.73 52.3594ZM122.617 43.3164V41.2852H125.957V38.0234H128.438V48.4336H125.957V43.3164H122.617ZM147.148 40.6211V42.6328H144.844V44.4492H147.148V46.4805H144.844V49.3125H142.344V38.0234H144.844V40.6211H147.148ZM130.742 41.6562V39.7227H134.785V37.9258H137.266V39.7227H141.289V41.6562H130.742ZM131.602 45.4648C131.602 43.5703 133.398 42.2715 136.016 42.2617C138.604 42.2715 140.391 43.5703 140.391 45.4648C140.391 47.3789 138.604 48.6484 136.016 48.6484C133.408 48.6484 131.602 47.3789 131.602 45.4648ZM133.027 52.6523C133.008 50.6504 135.303 49.4785 139.043 49.4688C142.695 49.4785 145.029 50.6504 145.039 52.6523C145.029 54.6055 142.695 55.8066 139.043 55.7969C135.303 55.8066 133.008 54.6055 133.027 52.6523ZM134.043 45.4648C134.033 46.3438 134.824 46.8027 136.016 46.793C137.217 46.8027 138.027 46.3438 138.027 45.4648C138.027 44.5762 137.217 44.0879 136.016 44.0781C134.824 44.0879 134.033 44.5762 134.043 45.4648ZM135.488 52.6523C135.479 53.4824 136.709 53.9414 139.043 53.9414C141.309 53.9414 142.539 53.4824 142.539 52.6523C142.539 51.7637 141.309 51.373 139.043 51.3633C136.709 51.373 135.479 51.7637 135.488 52.6523ZM168.887 47.1445V49.0977H162.188V51.9688H159.727V49.0977H152.617V47.1445H168.887ZM154.531 55.4844V50.5625H156.992V53.4922H167.09V55.4844H154.531ZM154.707 45.8945V38.5898H157.168V40.4453H164.297V38.5898H166.777V45.8945H154.707ZM157.168 43.9219H164.297V42.3008H157.168V43.9219ZM176.582 40.7969C176.572 43.0137 177.812 45.1621 180.625 46.0508L179.297 48.0234C177.393 47.3789 176.084 46.0996 175.332 44.4883C174.551 46.2461 173.154 47.623 171.152 48.3359L169.805 46.3438C172.783 45.3965 174.053 43.0723 174.062 40.6406V38.9414H176.582V40.7969ZM172.695 51.3828V49.4102H184.902V55.7969H182.422V51.3828H172.695ZM179.082 43.375V41.3242H182.422V38.0234H184.902V48.6094H182.422V43.375H179.082ZM198.535 42.0469C198.545 45.3867 199.893 48.6387 202.852 49.918L201.328 51.9102C199.355 50.9531 198.027 49.1758 197.285 46.9785C196.523 49.3125 195.156 51.2266 193.125 52.2227L191.562 50.1914C194.609 48.8145 195.996 45.3867 196.016 42.0469V39.3906H198.535V42.0469ZM200.859 45.6211V43.6094H204.355V38.0234H206.816V55.8359H204.355V45.6211H200.859ZM223.984 38.0234V55.8359H221.465V38.0234H223.984ZM209.98 51.6758V39.4297H212.48V43.7656H216.309V39.4297H218.77V51.6758H209.98ZM212.48 49.6641H216.309V45.6992H212.48V49.6641ZM235.742 40.3672C235.732 42.9746 238.047 45.7578 242.07 46.4414L240.977 48.5117C237.871 47.8965 235.576 46.1484 234.424 43.873C233.252 46.1289 230.947 47.8867 227.871 48.5117L226.797 46.4414C230.752 45.7383 233.066 42.9453 233.086 40.3672V39.0781H235.742V40.3672ZM226.387 53.6094V51.5586H242.656V53.6094H226.387Z" fill="#ACA5A3"/>
</svg>
