<svg width="160" height="161" viewBox="0 0 160 161" fill="none" xmlns="http://www.w3.org/2000/svg">
<path fill-rule="evenodd" clip-rule="evenodd" d="M58.9908 107.719C44.5647 137.538 31.1082 150.367 18.0571 145.453C4.10174 140.198 3.83398 107.157 17.0753 71.2771C30.3165 35.3976 50.9902 9.97969 66.008 15.522C75.7759 19.1268 77.9681 37.0787 74.3236 59.8434L74.3691 59.8585C72.7691 70.6585 73.1316 74.2644 74.5602 76.2644C76.5602 79.0644 79.7269 79.7644 81.0602 79.7644C87.4602 79.3644 93.3218 72.4604 95.0865 68.5617L95.5637 67.5941C103.581 50.446 124.867 10.413 142.399 16.4743C156.285 21.2749 155.49 54.7638 143.381 90.6503C126.49 135.764 107.49 150.264 94.448 146.405C82.1708 142.773 81.1411 121.855 86.8766 95.8479C87.9243 88.4936 86.1926 85.2081 85.0602 84.2644C82.6602 82.2644 79.623 81.9518 77.5602 82.2644C70.5367 83.329 64.1244 96.9653 60.1291 105.462C59.7462 106.276 59.3855 107.043 59.0485 107.747L58.9908 107.719Z" fill="url(#paint0_linear_943_9479)"/>
<defs>
<linearGradient id="paint0_linear_943_9479" x1="80.0003" y1="14.7625" x2="80.0003" y2="147" gradientUnits="userSpaceOnUse">
<stop offset="0.205" stop-color="#FD8B3E"/>
<stop offset="0.45" stop-color="#FF852F"/>
<stop offset="1" stop-color="#E9A353"/>
</linearGradient>
</defs>
</svg>
